<svg xmlns="http://www.w3.org/2000/svg" viewBox="0 0 393 152.1" style="enable-background:new 0 0 393 152.1" xml:space="preserve">
  <path style="fill:#fff" d="M154.3 90H58.9l6.9-19h88.4l8.9-24.6H74.8l6.9-19H175L185 0H55.4L12.2 118.5H144L154.3 90zM310.3 50.6H227l8-22.1h87.4L332.8 0H209.1L166 118.5h36.3L217 78.1h83.3l10-27.5zM393 0h-36.3l-43.1 118.5h36.3L393 0zM13.4 147.5l.8-2.3H5.9l.7-1.8h8.8l.9-2.6H4.1L0 152h12.4l1-2.7h-9l.7-1.8h8.3zM22 140.8h-3.4L14.5 152h11.1l1-2.9H19l3-8.3zM40.5 147.5l.8-2.3H33l.7-1.8h8.8l.9-2.6H31.2L27.1 152h12.4l1-2.7h-9l.7-1.8h8.3zM54.5 140.7h-4c-3.1 0-5.2.8-6.4 4.1l-1.2 3.3c-1.2 3.3.4 4.1 3.5 4.1h5.5c3.4 0 4.7-1.5 5.4-3.4l.4-1.1h-3.4c-.5 1.4-1 1.5-2.6 1.5H48c-1.6 0-1.7-.6-1.1-2.2l.4-1.2c.5-1.4 1.2-2.2 3-2.2H54c1 0 1.5.2 1.2 1l-.1.3h3.4c1.1-3.1.9-4.2-4-4.2zM74.4 140.8H61.3l-1 2.8h4.8L62 152h3.4l3.1-8.4h4.8l1.1-2.8zM86.3 140.8H75.9L71.8 152h3.4l1.1-2.9h5.4c1.1 0 1.3.4.8 1.6L82 152h3.4l.7-1.9c.7-1.8 0-2.3-1-2.5 1.4-.2 2.6-1.3 2.9-2.8l.3-.7c.8-2 .6-3.3-2-3.3zm-1.5 4-.1.4c-.2.8-.9 1.3-1.7 1.2h-5.7l1-2.7h5.4c1.1-.1 1.5.1 1.1 1.1zM102.2 140.7h-5.5c-3.1 0-5.2.8-6.4 4.1l-1.2 3.3c-1.2 3.3.4 4.1 3.5 4.1H98c3.1 0 5.2-.8 6.4-4.1l1.2-3.3c1.2-3.3-.3-4.1-3.4-4.1zm-.5 5.1-.4 1.2c-.6 1.6-1.2 2.2-2.8 2.2h-4.4c-1.6 0-1.7-.6-1.1-2.2l.4-1.2c.5-1.4 1.2-2.2 3-2.2h4c1.8 0 1.8.8 1.3 2.2zM120.9 140.8l-3 8.1-3.5-8.1h-5.3L105 152h3.4l3-8.1 3.5 8.1h5.3l4.1-11.2h-3.4zM126.9 140.8l-4.1 11.2h3.4l4.1-11.2h-3.4zM141.6 140.7h-4c-3.1 0-5.2.8-6.4 4.1l-1.2 3.3c-1.2 3.3.4 4.1 3.5 4.1h5.5c3.4 0 4.7-1.5 5.4-3.4l.4-1.1h-3.4c-.5 1.4-1 1.5-2.6 1.5H135c-1.6 0-1.7-.6-1.1-2.2l.4-1.2c.5-1.4 1.2-2.2 3-2.2h3.7c1 0 1.5.2 1.2 1l-.1.3h3.4c1.2-3.1.9-4.2-3.9-4.2zM167.6 143.5l1-2.7h-11.7l-4.1 11.2h3.4l1.4-3.8h7.9l.9-2.6h-7.9l.8-2.1h8.3zM181.3 140.8l-2.4 6.5c-.2 1.2-1.4 2.1-2.6 2h-3.4c-1.4 0-1.7-.6-1.2-2l2.4-6.5h-3.4L168 148c-1 2.8-.1 4.1 3.1 4.1h4.9c3.2 0 5.1-1.3 6.1-4.1l2.6-7.2h-3.4zM196.4 147.5l.8-2.3h-8.3l.7-1.8h8.8l.9-2.6H187l-4 11.2h12.4l1-2.7h-9l.7-1.8h8.3zM205 140.8h-3.4l-4.1 11.2h11.1l1-2.9H202l3-8.3zM222 140.8l-4.1 11.2h3.4l4.1-11.2H222zM239.7 140.8l-3 8.1-3.5-8.1h-5.3l-4.1 11.2h3.4l3-8.1 3.5 8.1h5.3l4.1-11.2h-3.4zM252.7 140.8l-2.7 7.4c-.4 1-1.1 1.2-2.2 1.2h-1.4c-1.1 0-1.4-.3-1.1-1.2l.4-1h-3.3l-.5 1.3c-1 2.6-.1 3.6 3.1 3.6h2.2c3.1 0 5-.6 6.1-3.7l2.8-7.6h-3.4zM267.8 147.5l.8-2.3h-8.3l.7-1.8h8.8l.9-2.6h-12.2l-4.1 11.2h12.4l1-2.7h-9l.7-1.8h8.3zM281.7 140.7h-4c-3.1 0-5.2.8-6.4 4.1l-1.2 3.3c-1.2 3.3.4 4.1 3.5 4.1h5.5c3.4 0 4.7-1.5 5.4-3.4l.4-1.1h-3.4c-.5 1.4-1 1.5-2.6 1.5h-3.7c-1.6 0-1.7-.6-1.1-2.2l.4-1.2c.5-1.4 1.2-2.2 3-2.2h3.7c1 0 1.5.2 1.2 1l-.1.3h3.4c1.1-3.1.9-4.2-4-4.2zM301.6 140.8h-13.1l-1 2.8h4.8l-3.1 8.4h3.4l3.1-8.4h4.8l1.1-2.8zM303.3 140.8l-4.1 11.2h3.4l4.1-11.2h-3.4zM319.5 140.7H314c-3.1 0-5.2.8-6.4 4.1l-1.2 3.3c-1.2 3.3.4 4.1 3.5 4.1h5.5c3.1 0 5.2-.8 6.4-4.1l1.2-3.3c1.1-3.3-.4-4.1-3.5-4.1zm-.5 5.1-.4 1.2c-.6 1.6-1.2 2.2-2.8 2.2h-4.4c-1.6 0-1.7-.6-1.1-2.2l.4-1.2c.5-1.4 1.2-2.2 3-2.2h4c1.8 0 1.8.8 1.3 2.2zM335.3 149l-3.5-8.1h-5.3l-4.1 11.2h3.4l3-8.1 3.5 8.1h5.3l4.1-11.2h-3.4l-3 8.1z"/>
</svg>