<svg xmlns="http://www.w3.org/2000/svg" viewBox="0 0 523 122" style="enable-background:new 0 0 523 122" xml:space="preserve">
  <path style="fill:#fff" d="M471.7 108.8c0-7 3.6-13.2 11.3-13.2 4.1 0 6.6 1.4 9.2 4.5l-3.8 3.7c-1.5-1.7-3-2.9-5.4-2.9-4.5 0-5.9 4.3-5.9 8s1.4 8 5.9 8c2.5 0 4.1-1.3 5.6-3.2l3.8 3.6c-2.9 3.4-4.8 4.8-9.4 4.8-7.7-.1-11.3-6.4-11.3-13.3zm-141.3 0c0-6.9 3-13.2 10.9-13.2s10.9 6.3 10.9 13.2-3 13.2-10.9 13.2-10.9-6.4-10.9-13.2zm5.4 0c0 3.7.8 8 5.5 8s5.5-4.2 5.5-8c0-3.7-.8-8-5.5-8-4.6 0-5.5 4.2-5.5 8zM0 108.8c0-6.9 3-13.2 10.9-13.2s10.9 6.3 10.9 13.2-3 13.2-10.9 13.2S0 115.6 0 108.8zm5.4 0c0 3.7.8 8 5.5 8s5.5-4.2 5.5-8c0-3.7-.8-8-5.5-8s-5.5 4.2-5.5 8zm368.5 12.9-5.2-8.6c-.8-1.3-1.1-1.7-2.7-1.7h-1.3v10.4h-5.3V95.9h9.6c5.1 0 9.1 2.4 9.1 7.8.1 3.1-1.9 6-4.9 7l7.1 11h-6.4zm-9.3-15.1h4.3c2.1 0 3.7-.5 3.7-2.9 0-2.3-1.7-2.8-3.7-2.8h-4.3v5.7zm-69.3 15.1-5.2-8.6c-.8-1.3-1.1-1.7-2.7-1.7h-1.3v10.4h-5.4V95.9h9.6c5.1 0 9.1 2.4 9.1 7.8.1 3.1-1.9 6-4.9 7l7.1 11h-6.3zm-9.3-15.1h4.3c2.1 0 3.7-.5 3.7-2.9 0-2.3-1.7-2.8-3.7-2.8H286v5.7zm-56.6 15.1V95.9h10.2c5.2 0 8.9 2.4 8.9 7.9 0 5.7-3.3 7.9-8.7 7.9h-5.1v10h-5.3zm5.3-15.1h4.7c2.1 0 3.7-.4 3.7-2.9 0-2.4-1.7-2.8-3.7-2.8h-4.7v5.7zm-46.3 15.1V95.9h7.4c10.1 0 12.5 3.1 12.5 12.9s-2.4 12.9-12.5 12.9h-7.4zm5.4-5.2h3.2c4.9 0 5.9-1.1 5.9-5.9V107c0-4.8-1-5.9-5.9-5.9h-3.2v15.4zm-165.6 5.2V95.9h10.2c5.2 0 8.9 2.4 8.9 7.9 0 5.7-3.3 7.9-8.7 7.9h-5.1v10h-5.3zm5.4-15.1h4.7c2.1 0 3.7-.4 3.7-2.9 0-2.4-1.7-2.8-3.7-2.8h-4.7v5.7zm400 15.1-2.4-6.5h-8.5l-2.4 6.5h-5.8l10-25.8h4.6l10.1 25.8h-5.6zm-9.1-11.1h5.1l-2.5-6.9-2.6 6.9zm73.6 11.1V95.9H516v5.2h-12.6v4.8h11v5h-11v5.5H516v5.2l-17.9.1zm-37.1 0-9.5-14.7v14.7h-5.4V95.9h4.3l9.5 14.7V95.9h5.3v25.8H461zm-56.9 0v-12.1l-5 12.1h-3.3l-5-12.1v12.1h-5.4V95.9h5.1l6.9 17.2 7.1-17.2h5v25.8h-5.4zm-96.9 0V95.9h17.6v5.2h-12.3v4.8h10.9v5h-10.9v10.7l-5.3.1zm-51.8 0V95.9h17.9v5.2h-12.6v4.8h11v5h-11v5.5h12.6v5.2l-17.9.1zm-92.2 0V95.9h17.9v5.2h-12.6v4.8h11v5h-11v5.5h12.6v5.2l-17.9.1zm-26.5 0v-3.8l11.5-16.8h-10.7v-5.2h18v4l-11.4 16.6h11.8v5.2h-19.2zm-12.1 0V95.9h5.4v25.8h-5.4zm-13.1 0v-12.1l-5 12.1h-3.3l-5-12.1v12.1h-5.4V95.9h5.1l6.9 17.2 7.1-17.2h5v25.8h-5.4zm-33.3 0V95.9h5.4v25.8h-5.4zm-18.7 0v-20.6h-7.3v-5.2h20v5.2h-7.3v20.6h-5.4zM.7 78.6v-8.7H515v8.7H.7zm428.1-22.4V.1h35.3v11.1h-23v10.7h21.2V33h-21.2v12h23v11.1l-35.3.1zm-30.9 0-10.1-36.8-9.9 36.8h-12.5L356.7.1h12.1l4.1 34.8L382.4.1h10.8l9.6 34.8L407 .1h12.1l-8.7 56.1h-12.5zm-136.4 0V.1H292c5.1 0 9.3 4.1 9.4 9.2v17.1c0 5.1-4.2 9.3-9.3 9.3H273.9v20.5h-12.4zm12.4-31.7h14.3c.4 0 .8-.3.9-.7V12c0-.4-.3-.8-.8-.8h-14.4v13.3zm-29.8 31.7V.1h6v56.1h-6zm-42 0V.1h6v50.6h25.7v5.5h-31.7zm-42.1 0V.1h6v50.6h25.7v5.5H160zm-43.9 0V.1h32.4v5.5H122v18.9h24.1V30H122v20.8h26.6v5.5l-32.5-.1zm-34.2 0V5.5h-17V.1h39.8v5.5H87.9v50.6h-6zm-31.5 0L23.8 10.8v45.4H18V.1h5.8l26.6 45.5V.1h5.8v56.1h-5.8zm-49.7 0V.1h6v56.1h-6zm502.1 0-9.9-20.6h-8.4v20.6h-12.4V.1h31.6c5.1 0 9.3 4.1 9.4 9.2v16.9c0 4.1-2.8 7.8-6.7 8.9l10.1 21-13.7.1zm-18.3-31.8h15.4c.4 0 .8-.3.9-.7V12c0-.4-.3-.8-.8-.8h-15.5v13.2zM318.6 56.2c-5.1 0-9.3-4.1-9.4-9.2V9.3c0-5.1 4.2-9.3 9.3-9.3h21c5.1 0 9.3 4.1 9.4 9.2v37.7c0 5.1-4.2 9.3-9.3 9.3h-21zm2.9-44.2v32.2c0 .4.3.8.8.8h13.4c.4 0 .8-.3.9-.7V12c0-.4-.3-.8-.8-.8h-13.4c-.4 0-.8.3-.9.7v.1zm194.4-7.3-.1-3.7h-1.2V.1h3.4V1h-1.2l.1 3.7h-1zm6.1 0V2.5l-.9 2.2h-.6l-1-2.2v2.2h-1l.1-4.7h.9l1.3 3.1L522 0h.9l.1 4.6-1 .1z"/>
</svg>