<svg version="1.1" id="Layer_1" xmlns="http://www.w3.org/2000/svg" x="0" y="0" viewBox="0 0 544.1 123" style="enable-background:new 0 0 544.1 123" xml:space="preserve">
  <path class="st0" d="M94.7 0 65.5 22.1 52.1 0H25l19.9 31.5L0 63.1h28.2L59 40.2l14.3 22.9h28.2L79.3 31.5 121.8 0H94.7z"/>
  <path style="fill:none" d="M0 0h544.1v63.7H0z"/>
  <path class="st0" d="M127.3 46.5h16.9c-1.9 5.4.3 5.8 5.2 5.8h20.7c3.6 0 7.4-.4 8.8-4.3 1.6-4.4-.3-4.7-22.1-4.7-25.4 0-27.3-2.8-22.8-15.3 3.3-9.2 6.8-16.3 28.1-16.3h23.6c19.5 0 19.1 6.1 15.9 15l-.6 1.6h-16.9c1.3-3.7 1.4-5.3-6.3-5.3h-18.7c-3.8 0-6.8 1.2-7.8 3.9-1.6 4.4.4 4.6 18.6 4.5 26.3-.1 31.8 1.4 26.5 16.2-4.9 13.7-10.7 15.9-33.2 15.9h-20.5c-15.4 0-20.6-2.7-16.6-13.7l1.2-3.3zM220 12.3h60.3L276 24.1h-43.4l-2.9 8.1h41.1L267 42.7h-41.1l-2.9 8.1h44.4L263 63.1h-61.3zM343.1 12.3h-51L273.9 63h16.9l4.7-13.2h26.6c5.3 0 6.3 1.8 4.4 7.1l-2.2 6.1h16.9l3.1-8.6c3-8.3-.5-10.4-5.2-11.2v-.1c8.3-1.7 11.5-5.7 13.9-12.5l1.2-3.2c3.3-9.1 1.9-15.1-11.1-15.1zm-6.4 17.9-.6 1.7c-1.4 3.6-3.6 5.3-8.2 5.3H300l4.5-12.3h26.4c5.3 0 7.4.8 5.8 5.3zM371.8 12.2h16.9L370.4 63h-16.9zM401.1 12.2h60.3L457.1 24h-43.4l-2.9 8.1h41.1l-3.8 10.5H407l-2.9 8.1h44.4L444.1 63h-61.3zM460.4 46.4h16.9c-1.9 5.4.3 5.8 5.2 5.8h20.7c3.6 0 7.4-.4 8.8-4.3 1.6-4.4-.3-4.7-22.1-4.7-25.4 0-27.3-2.8-22.8-15.3 3.3-9.2 6.8-16.3 28.1-16.3h23.6c19.5 0 19.1 6.1 15.9 15l-.6 1.6h-16.9c1.3-3.7 1.4-5.3-6.3-5.3h-18.7c-3.8 0-6.8 1.2-7.8 3.9-1.6 4.4.4 4.6 18.6 4.5 26.3-.1 31.8 1.4 26.5 16.2-4.9 13.7-10.8 15.9-33.2 15.9h-20.5c-15.4 0-20.6-2.7-16.6-13.7l1.2-3.3z"/>
  <path d="M4.7 92.4h19v6.1H11.3v5.8h11.4v6.1H11.3v6.6h12.4v6.1h-19zM52.4 123H46l-10.2-17.8V123h-6.4V92.4h6.4L46 110.3V92.4h6.4zM68.3 106.3h11.2v11.6c0 2.8-2.3 5.1-5.1 5.1H63.6c-2.8 0-5.1-2.3-5.1-5.1V97.4c0-2.8 2.3-5.1 5.1-5.1h10.8c2.8 0 5.1 2.3 5.1 5.1v3.7l-6.5 1.1v-3.4c0-.3-.2-.5-.5-.5h-6.8c-.3 0-.5.2-.5.5v17.6c0 .3.2.5.5.5h6.8c.3 0 .5-.2.5-.5V112h-4.6l-.1-5.7zM85.5 92.4h6.7V123h-6.7zM121.9 123h-6.4l-10.2-17.8V123h-6.4V92.4h6.4l10.2 17.9V92.4h6.4zM128.4 92.4h19v6.1H135v5.8h11.4v6.1H135v6.6h12.4v6.1h-19.1V92.4zM153 92.4h19v6.1h-12.4v5.8H171v6.1h-11.4v6.6H172v6.1h-19zM196 111.6c2.1-.7 3.6-2.6 3.6-4.9v-9.2c0-2.8-2.3-5.1-5.1-5.1h-17V123h6.7v-11.3h4.6l5.3 11.4h7.3l-5.4-11.5zm-2.9-6.5c0 .3-.2.5-.5.5h-8.3v-7.3h8.3c.3 0 .5.2.5.5v6.3zM206.1 92.4h19v6.1h-12.4v5.8h11.4v6.1h-11.4v6.6h12.4v6.1H206V92.4zM246.5 92.4h-15.8v30.7h15.8c2.8 0 5.1-2.3 5.1-5.1V97.5c0-2.8-2.3-5.1-5.1-5.1zm-1.6 24c0 .3-.2.5-.5.5h-7.1V98.4h7.1c.3 0 .5.2.5.5v17.5zM267.6 123V92.4h19.3v6.1h-12.7v5.8h11.6v6.1h-11.6V123h-6.6zM307.4 92.3h-11.3c-2.8 0-5.1 2.3-5.1 5.1v20.5c0 2.8 2.3 5.1 5.1 5.1h11.3c2.8 0 5.1-2.3 5.1-5.1V97.4c0-2.8-2.3-5.1-5.1-5.1zm-1.5 24.2c0 .3-.2.5-.5.5h-7.2c-.3 0-.5-.2-.5-.5V98.9c0-.3.2-.5.5-.5h7.2c.2 0 .4.2.5.5v17.6zM337.1 111.6c2.1-.7 3.6-2.6 3.6-4.9v-9.2c0-2.8-2.3-5.1-5.1-5.1h-17V123h6.7v-11.3h4.6l5.3 11.4h7.3l-5.4-11.5zm-2.9-6.5c0 .3-.2.5-.5.5h-8.3v-7.3h8.3c.3 0 .5.2.5.5v6.3zM357 92.4h19v6.1h-12.4v5.8H375v6.1h-11.4v6.6H376v6.1h-19zM391.9 101.5l4.9-9.2h7l-8.1 15.1L404 123h-7l-5.1-9.6-5.1 9.6h-7l8.3-15.5-8.1-15.1h7l4.9 9.1zM406.5 92.4H429v6.1h-7.9V123h-6.7V98.4h-7.9zM451.8 111.6c2.1-.7 3.6-2.6 3.6-4.9v-9.2c0-2.8-2.3-5.1-5.1-5.1h-17V123h6.7v-11.3h4.6l5.3 11.4h7.3l-5.4-11.5zm-2.9-6.5c0 .3-.2.5-.5.5h-8.3v-7.3h8.3c.3 0 .5.2.5.5v6.3zM461.9 92.4h19v6.1h-12.4v5.8h11.4v6.1h-11.4v6.6H481v6.1h-19.1zM492.9 106.9V123h-6.4V92.4h6.4l7.7 18.4 7.7-18.4h6.4V123h-6.4v-16.1l-4.9 11.4h-5.6l-4.9-11.4zM521.2 92.4h19v6.1h-12.4v5.8h11.4v6.1h-11.4v6.6h12.4v6.1h-19.1V92.4zM538.7 63.4c-3 0-5.4-2.4-5.4-5.4 0-3 2.4-5.4 5.4-5.4 3 0 5.4 2.4 5.4 5.4 0 3-2.4 5.4-5.4 5.4zm0-10.1c-2.6 0-4.7 2.1-4.7 4.7s2.1 4.7 4.7 4.7 4.7-2.1 4.7-4.7-2.1-4.7-4.7-4.7z"/>
  <path d="M538.4 57.6c.3 0 .5-.1.7-.2.1-.1.2-.3.2-.6s-.1-.5-.2-.6c-.1-.1-.4-.2-.7-.2h-.6v1.5h.6m-.6 1.1v2.2h-1.5V55h2.3c.8 0 1.3.1 1.7.4.4.3.5.7.5 1.2 0 .4-.1.7-.3 1-.2.2-.5.4-.8.5l.6.3c.2.2.3.4.5.8l.8 1.7H540l-.7-1.5c-.1-.3-.3-.5-.4-.6-.1-.1-.3-.2-.6-.2h-.5"/>
</svg>