<svg xmlns="http://www.w3.org/2000/svg" viewBox="0 0 147.6 43.8" xml:space="preserve">
  <path d="M61 22.5v-3.8L52.1 28l8.8 8.6v-3.4h18.9v3.7l8.9-9.3-8.8-8.6v3.6H61z" fill="#ffb400"/>
  <path d="M43 29.9c.1 3.6-7.1 9.4-10.6 8.8-1.1 2.2-2.7 4.9-5.9 3.8s-3.7-2.2-5.9-2.2-4.3-.5-4.8-5.4-.8-6.8-2.4-8.9S7 27.3 7 27.3c-1.6 1.1-6.5 1-6-5s2-7 3-8c1.5-1.2 2.5-3 2.7-4.9.6-3.2.6-5.3 3.3-7s5.3-2.6 5.3 3.3c4-.5 9.5 0 5.6 5.7-2 2.6-4.5 4.7-7.3 6.2 0 0 .9 2.5 7-1.7 4.6-3.2 8.1-7.1 13.9-6.5s7.1 2.1 8.7.4 4.5-2.6 6.6-.4 2.2 5.4.6 6.5c-1.8 1-2.8 2.9-2.7 4.9.7 3-.9 7.6-4.7 9.1z" fill="none" stroke="#161514" stroke-width="2.125" stroke-linecap="round" stroke-linejoin="round"/>
  <path d="M29.9 36c-2.2 0-3.2-.5-3.2-2.2s1.6-2.2 3.2-2.2 3.8.5 3.8 2.2-1.6 2.2-3.8 2.2zM98 32.2c-.9 0-2.6.2-3-2.5-.5-2.6-.6-10.7 4.7-10.7 4.3 0 6.6 4.1 7.6 6.6 2.8-4.1 7.5-11.7 18-11.7 12.1 0 18 11.7 18 11.7s3.3 0 3.3 2-3.3 4.6-5.2 5.1c-.4 2.5-.7 5.9-3.8 6.1-3.2.2-3.8-4-3.8-4s-12.8 2-19.4.5c0 3.1-1.9 5.6-4.3 5.6-1.4 0-3.2-1.5-3.3-5.1-.1-3.1-1.3-4.3-2.8-4.1-1.5.3-6 .5-6 .5z" fill="none" stroke="#161514" stroke-width="2.125" stroke-linecap="round" stroke-linejoin="round"/>
  <path d="M6.8 19.1c.8 0 1.4-.6 1.4-1.4s-.6-1.4-1.4-1.4-1.4.6-1.4 1.4c0 .8.6 1.4 1.4 1.4M99.7 25.3c.8 0 1.4-.6 1.4-1.4s-.6-1.4-1.4-1.4-1.4.6-1.4 1.4c0 .8.6 1.4 1.4 1.4" fill="#161514"/>
</svg>