<svg xmlns="http://www.w3.org/2000/svg" viewBox="0 0 132.5 93.5" xml:space="preserve">
  <path d="M61.7 30.6h-3.5l8.5 8.2 7.9-8.1h-3.2V8.2h3.4L66.3 0l-7.9 8.1h3.3v22.5zm51.1 42.8.9 3.1 5.7-10.4-10.4-5.8.9 3.1c-12.3 4.3-73.2 4.7-86.7 1.5l.9-3.2-10.4 5.7 5.7 10.4 1-3.4c15.4 4 78.3 3.7 92.4-1" fill="#ffb400"/>
  <path d="M86.1 87.6c2.8-5.4 10.4-20.1 13.9-27m-33.7-8.2c1.1-1.7 10.2-15.7 17.3-23.3M46.8 87.6l-.2.4m62.1-46.2c-1.2 2.8-5.4 12.2-7.1 15.7-.3.6-.9 1.7-1.6 3.2M66.3 88.9c-7.3-.3-15-.6-19.6-.8m19.6.8c9.7.4 18.7.8 18.7.8l.8-1.6m.1-.1-.1.1m.1-.1.2-.4m-39.5.4-.1.1h.1m62.1-46.3c18.5-10.4 22.1-23.3 22.8-30.1-5.2-.2-4.9.8-4.9.8s-10.3.8-22.6 1.3c-7.6.3-14.4 2-19.4 4.9-.4-1.8-.8-4.8-.8-4.8l-3.7 1.2c.4 4.8 1.6 9.6 3.6 14m25 12.7c-2.7 1.5-5.5 2.8-8.3 4-6.8-3.3-13-8.4-16.8-16.7" fill="none" stroke="#cacbcb" stroke-width="2.125" stroke-linecap="round" stroke-linejoin="round"/>
  <path d="M84.1 18.3c.9 5.2 3 10.2 6.2 14.5M127 12.5s0 14.4-22.6 27.3m-14-7c4.5 6 9.7 8.7 10.5 8.8 1.2-.6 2.4-1.3 3.5-1.9m-35.8 14c8.6 2.4 17.2 4.5 26 6m5.4 1c-1.8-.3-3.7-.6-5.4-.9" fill="none" stroke="#cacbcb" stroke-miterlimit="10"/>
  <path d="M100.1 60.7h-.1" fill="none" stroke="#cacbcb" stroke-width="2.125" stroke-miterlimit="10"/>
  <path d="M77.3 69.8c5.3 1.3 11 2.5 16.2 3.3m7.4-27.4c-1.7 4.9-3.8 9.6-6.3 14.1M83.2 82.2l5.1-10" fill="none" stroke="#cacbcb" stroke-miterlimit="10"/>
  <path d="M46.8 87.6h38.9m-39.2 0h.3m39.3 0h-.4m.1.5c-4.6.2-12.3.5-19.6.8m19.7-.9-.2-.4M66.3 52.4c-1.1-1.8-10.5-16.1-17.5-23.6C29.9 40.6 23.5 41 23.5 41S29 53.4 31 57.5c1.7 3.4 12.1 23.6 15.5 30.2m.2.4-.1-.1m-.1-.4.2.4m39-.4c-.9-1.9-1.7-3.7-2.5-5.4M66.3 52.4l.1.2 2.2 1.1m0 0 1.1.6s2.9 4.7 4.3 7.3c.4 1.7.7 2.9.7 2.9s1 2 2.7 5.3m-.1 0c1.5 3.1 3.6 7.4 6 12.4" fill="none" stroke="#cacbcb" stroke-width="2.125" stroke-linecap="round" stroke-linejoin="round"/>
  <path d="m46.7 88.1.8 1.6s9-.4 18.7-.8m19.6-.8h.1V88" fill="none" stroke="#cacbcb" stroke-width="2.125" stroke-linecap="round" stroke-linejoin="round"/>
  <path d="M23.5 41s5.4 12.3 7.4 16.4 16.6 32.2 16.6 32.2 27.9-1.1 38.4-1.6c-6-13.2-11.4-23.6-11.4-23.6s-.3-1.2-.7-2.9c-1.4-2.6-4.3-7.3-4.3-7.3l-3.3-1.7S56.1 36.7 48.5 28.8C29.9 40.6 23.5 41 23.5 41z" fill="none" stroke="#161514" stroke-width="2.125" stroke-linecap="round" stroke-linejoin="round"/>
  <path d="M32.2 45.9c10-4.9 18.7-13.4 20.4-30.8l-3.7-1.2-.8 4.8c-5-2.9-11.8-4.7-19.4-4.9C16.3 13.3 6 12.5 6 12.5s.2-1-4.9-.8c.8 7.7 5.3 23.4 31.1 34.2" fill="#fff"/>
  <path d="M32.2 45.9c10-4.9 18.7-13.4 20.4-30.8l-3.7-1.2-.8 4.8c-5-2.9-11.8-4.7-19.4-4.9C16.3 13.3 6 12.5 6 12.5s.2-1-4.9-.8c.8 7.7 5.3 23.4 31.1 34.2z" fill="none" stroke="#161514" stroke-width="2.125" stroke-linecap="round" stroke-linejoin="round"/>
  <path d="M5.5 12.5s-.1 15.8 26.1 29.1c1.3-.1 13.9-7.1 16.8-23.3m18.3 34.6c-11.2 3.4-22.7 6-34.3 7.8m42.1 4s-19.8 6-35.4 8.4" fill="none" stroke="#161514" stroke-linejoin="round"/>
  <path d="M31.6 45.7c1.7 4.9 3.8 9.6 6.4 14.1m6.3 12.4 6 11.8s23 0 33.3-.2" fill="none" stroke="#161514" stroke-linejoin="round"/>
  <path d="M43.3 87.6h45.8v4.8H43.3z" fill="#fff"/>
  <path d="M43.3 87.6h45.8v4.8H43.3z" fill="none" stroke="#161514" stroke-width="2.125" stroke-linecap="round" stroke-linejoin="round"/>
</svg>