<svg xmlns="http://www.w3.org/2000/svg" viewBox="0 0 106.2 70.6" xml:space="preserve">
  <path d="M47.9 69.5c10 0 18.2-15.3 18.2-34.2S58 1.1 47.9 1.1" fill="#fff"/>
  <path d="M47.9 69.5c10 0 18.2-15.3 18.2-34.2S58 1.1 47.9 1.1" fill="none" stroke="#161514" stroke-width="2.125" stroke-linecap="round" stroke-linejoin="round"/>
  <path d="M51.3 12.9s-1.7 8.2-1.7 22.7c.3 12.3 1.7 22.7 1.7 22.7s7.1-.8 7.1-24.3c0-21.1-7.1-21.1-7.1-21.1" fill="#ffb400"/>
  <path d="M54.7 66.7c-2.8 0-5.1-14.1-5.1-31.4s2.3-31.4 5.1-31.4M49.4 69.4c-3.1 0-5.6-15.3-5.6-34.1s2.5-34.1 5.6-34.1" fill="none" stroke="#161514" stroke-linecap="round" stroke-linejoin="round"/>
  <path d="M51.6 57.8c3.9 0 7.1-10.1 7.1-22.5s-3.2-22.5-7.1-22.5" fill="none" stroke="#161514" stroke-linecap="round" stroke-linejoin="round"/>
  <path d="M48 1.1C22.1 1.1 1 16.4 1 35.3s21 34.2 47 34.2" fill="none" stroke="#161514" stroke-width="2.125" stroke-linecap="round" stroke-linejoin="round"/>
  <path fill="none" stroke="#ffb400" stroke-width="2.125" stroke-linecap="round" stroke-linejoin="round" d="M99.3 35.3H78M105.2 49.8H78M94.2 64.3H74.6M105.2 20.8H78M94.2 6.3H74.6"/>
</svg>