<?xml version="1.0" encoding="utf-8"?>
<!-- Generator: Adobe Illustrator 27.0.0, SVG Export Plug-In . SVG Version: 6.00 Build 0)  -->
<svg version="1.1" id="Layer_1" xmlns="http://www.w3.org/2000/svg" xmlns:xlink="http://www.w3.org/1999/xlink" x="0px" y="0px"
	 viewBox="0 0 124.7 41.7" style="enable-background:new 0 0 124.7 41.7;" xml:space="preserve">
<path id="Path_3302" style="fill:#161514;" d="M79.8,0H0l5.8,5.2l2.2,2h0l6.4,5.8l2.4,2.1l6.3,5.7l2.4,2.2l5.4,4.9l15,13.7h78.8
	L79.8,0z M97.2,27.1c-0.9-0.1-1.7-0.5-2.3-1.1c-0.7-0.6-0.7-1.1,0-1.1c0.9,0.1,1.7,0.5,2.3,1.1C97.8,26.6,97.9,27.1,97.2,27.1
	L97.2,27.1z M95.3,23.1c-0.9-0.1-1.7-0.5-2.4-1.1c-0.7-0.6-0.7-1.1,0-1.1c0.3,0,0.5,0.1,0.8,0.2l2,1.9C95.6,23,95.5,23.1,95.3,23.1
	L95.3,23.1z M88.7,19.2c-0.9-0.1-1.7-0.5-2.3-1.1c-0.7-0.6-0.7-1.1,0-1.1c0.9,0.1,1.7,0.5,2.4,1.1C89.4,18.7,89.4,19.2,88.7,19.2
	L88.7,19.2z M87.2,15c-0.1,0.1-0.2,0.2-0.4,0.2c-0.9-0.1-1.7-0.5-2.3-1.1c-0.7-0.6-0.7-1.1,0-1.1c0.3,0,0.5,0.1,0.8,0.2L87.2,15z
	 M21.2,9.1c0.9,0.1,1.7,0.5,2.3,1.1c0.7,0.6,0.7,1.1,0,1.1c-0.9-0.1-1.7-0.5-2.3-1.1C20.6,9.6,20.5,9.1,21.2,9.1L21.2,9.1z M23.2,13
	c0,0,0.1,0,0.1,0c0.9,0.1,1.7,0.5,2.3,1.1c0.7,0.6,0.7,1.1,0,1.1c0,0-0.1,0-0.1,0L23.2,13z M30.1,14.1c0.7,0.6,0.7,1.1,0,1.1
	c-0.9-0.1-1.7-0.5-2.3-1.1c-0.7-0.6-0.7-1.1,0-1.1C28.6,13.1,29.4,13.5,30.1,14.1L30.1,14.1z M29.9,9.1c0.9,0.1,1.7,0.5,2.3,1.1
	c0.7,0.6,0.7,1.1,0,1.1c-0.9-0.1-1.7-0.5-2.4-1.1C29.3,9.6,29.3,9.1,29.9,9.1L29.9,9.1z M27.9,11.3c-0.9-0.1-1.7-0.5-2.3-1.1
	c-0.7-0.6-0.7-1.1,0-1.1c0.9,0.1,1.7,0.5,2.3,1.1C28.6,10.8,28.6,11.3,27.9,11.3L27.9,11.3z M29.7,17c0.9,0.1,1.7,0.5,2.3,1.1
	c0.7,0.6,0.7,1.1,0,1.1c-0.9-0.1-1.7-0.5-2.4-1.1C29.1,17.5,29,17,29.7,17L29.7,17z M32.1,14.1c-0.7-0.6-0.7-1.1,0-1.1
	c0.9,0.1,1.7,0.5,2.3,1.1c0.7,0.6,0.7,1.1,0,1.1C33.6,15.1,32.8,14.7,32.1,14.1L32.1,14.1z M38.8,14.1c0.7,0.6,0.7,1.1,0,1.1
	c-0.9-0.1-1.7-0.5-2.3-1.1c-0.7-0.6-0.7-1.1,0-1.1C37.3,13.1,38.1,13.5,38.8,14.1L38.8,14.1z M38.6,9.1c0.9,0.1,1.7,0.5,2.3,1.1
	c0.7,0.6,0.7,1.1,0,1.1c-0.9-0.1-1.7-0.5-2.4-1.1C38,9.6,38,9.1,38.6,9.1L38.6,9.1z M36.6,11.3c-0.9-0.1-1.7-0.5-2.3-1.1
	c-0.7-0.6-0.7-1.1,0-1.1c0.9,0.1,1.7,0.5,2.4,1.1C37.3,10.8,37.3,11.3,36.6,11.3L36.6,11.3z M34,17c0.9,0.1,1.7,0.5,2.4,1.1
	c0.7,0.6,0.7,1.1,0,1.1c-0.9-0.1-1.7-0.5-2.3-1.1C33.4,17.5,33.4,17,34,17L34,17z M36.2,20.9c0.9,0.1,1.7,0.5,2.4,1.1
	c0.7,0.6,0.7,1.1,0,1.1c-0.9-0.1-1.7-0.5-2.3-1.1C35.6,21.4,35.6,20.9,36.2,20.9L36.2,20.9z M38.4,18.1c-0.7-0.6-0.7-1.1,0-1.1
	c0.9,0.1,1.7,0.5,2.3,1.1c0.7,0.6,0.7,1.1,0,1.1C39.9,19.1,39.1,18.7,38.4,18.1L38.4,18.1z M40.8,14.1c-0.7-0.6-0.7-1.1,0-1.1
	c0.9,0.1,1.7,0.5,2.3,1.1c0.7,0.6,0.7,1.1,0,1.1C42.3,15.1,41.5,14.7,40.8,14.1L40.8,14.1z M43,9.1c0.9,0.1,1.7,0.5,2.4,1.1
	c0.7,0.6,0.7,1.1,0,1.1c-0.9-0.1-1.7-0.5-2.3-1.1C42.4,9.6,42.3,9.1,43,9.1L43,9.1z M42.8,17c0.9,0.1,1.7,0.5,2.3,1.1
	c0.7,0.6,0.7,1.1,0,1.1c-0.9-0.1-1.7-0.5-2.3-1.1C42.1,17.5,42.1,17,42.8,17L42.8,17z M45.2,14.1c-0.7-0.6-0.7-1.1,0-1.1
	c0.9,0.1,1.7,0.5,2.4,1.1c0.7,0.6,0.7,1.1,0,1.1C46.7,15.1,45.8,14.7,45.2,14.1L45.2,14.1z M47.3,9.1c0.9,0.1,1.7,0.5,2.3,1.1
	c0.7,0.6,0.7,1.1,0,1.1c-0.9-0.1-1.7-0.5-2.3-1.1C46.7,9.6,46.7,9.1,47.3,9.1L47.3,9.1z M47.1,17c0.9,0.1,1.7,0.5,2.3,1.1
	c0.7,0.6,0.7,1.1,0,1.1c-0.9-0.1-1.7-0.5-2.3-1.1C46.5,17.5,46.5,17,47.1,17L47.1,17z M49.6,14.1c-0.7-0.6-0.7-1.1,0-1.1
	c0.9,0.1,1.7,0.5,2.3,1.1c0.7,0.6,0.7,1.1,0,1.1C51,15.1,50.2,14.7,49.6,14.1L49.6,14.1z M51.7,9.1c0.9,0.1,1.7,0.5,2.3,1.1
	c0.7,0.6,0.7,1.1,0,1.1c-0.9-0.1-1.7-0.5-2.3-1.1C51.1,9.6,51.1,9.1,51.7,9.1L51.7,9.1z M51.5,17c0.9,0.1,1.7,0.5,2.3,1.1
	c0.7,0.6,0.7,1.1,0,1.1c-0.9-0.1-1.7-0.5-2.4-1.1C50.9,17.5,50.8,17,51.5,17L51.5,17z M53.9,14.1c-0.7-0.6-0.7-1.1,0-1.1
	c0.9,0.1,1.7,0.5,2.3,1.1c0.7,0.6,0.7,1.1,0,1.1C55.4,15.1,54.6,14.7,53.9,14.1L53.9,14.1z M56.1,9.1c0.9,0.1,1.7,0.5,2.3,1.1
	c0.7,0.6,0.7,1.1,0,1.1c-0.9-0.1-1.7-0.5-2.3-1.1C55.4,9.6,55.4,9.1,56.1,9.1L56.1,9.1z M55.8,17c0.9,0.1,1.7,0.5,2.4,1.1
	c0.7,0.6,0.7,1.1,0,1.1c-0.9-0.1-1.7-0.5-2.3-1.1C55.2,17.5,55.2,17,55.8,17L55.8,17z M58.3,14.1c-0.7-0.6-0.7-1.1,0-1.1
	c0.9,0.1,1.7,0.5,2.3,1.1c0.7,0.6,0.7,1.1,0,1.1C59.7,15.1,58.9,14.7,58.3,14.1L58.3,14.1z M60.4,9c0.9,0.1,1.7,0.5,2.3,1.1
	c0.7,0.6,0.7,1.1,0,1.1c-0.9-0.1-1.7-0.5-2.4-1.1C59.8,9.6,59.8,9.1,60.4,9L60.4,9z M60.2,16.9c0.9,0.1,1.7,0.5,2.3,1.1
	c0.7,0.6,0.7,1.1,0,1.1c-0.9-0.1-1.7-0.5-2.4-1.1C59.6,17.5,59.6,17,60.2,16.9L60.2,16.9z M62.6,14.1C62,13.5,62,13,62.6,13
	c0.9,0.1,1.7,0.5,2.3,1.1c0.7,0.6,0.7,1.1,0,1.1C64.1,15.1,63.3,14.7,62.6,14.1L62.6,14.1z M64.8,9c0.9,0.1,1.7,0.5,2.4,1.1
	c0.7,0.6,0.7,1.1,0,1.1c-0.9-0.1-1.7-0.5-2.3-1.1C64.1,9.6,64.1,9.1,64.8,9L64.8,9z M64.5,16.9c0.9,0.1,1.7,0.5,2.4,1.1
	c0.7,0.6,0.7,1.1,0,1.1c-0.9-0.1-1.7-0.5-2.3-1.1C63.9,17.4,63.9,17,64.5,16.9L64.5,16.9z M67,14.1c-0.7-0.6-0.7-1.1,0-1.1
	c0.9,0.1,1.7,0.5,2.4,1.1c0.7,0.6,0.7,1.1,0,1.1C68.5,15.1,67.6,14.7,67,14.1L67,14.1z M69.1,9c0.9,0.1,1.7,0.5,2.3,1.1
	c0.7,0.6,0.7,1.1,0,1.1c-0.9-0.1-1.7-0.5-2.4-1.1C68.5,9.6,68.5,9.1,69.1,9L69.1,9z M68.9,16.9c0.9,0.1,1.7,0.5,2.3,1.1
	c0.7,0.6,0.7,1.1,0,1.1c-0.9-0.1-1.7-0.5-2.3-1.1C68.3,17.4,68.3,17,68.9,16.9L68.9,16.9z M71.3,14.1c-0.7-0.6-0.7-1.1,0-1.1
	c0.9,0.1,1.7,0.5,2.3,1.1c0.7,0.6,0.7,1.1,0,1.1C72.8,15.1,72,14.7,71.3,14.1L71.3,14.1z M73.5,9c0.9,0.1,1.7,0.5,2.4,1.1
	c0.7,0.6,0.7,1.1,0,1.1c-0.9-0.1-1.7-0.5-2.3-1.1C72.9,9.5,72.8,9,73.5,9L73.5,9z M73.3,16.9c0.9,0.1,1.7,0.5,2.3,1.1
	c0.7,0.6,0.7,1.1,0,1.1c-0.9-0.1-1.7-0.5-2.3-1.1C72.6,17.4,72.6,17,73.3,16.9L73.3,16.9z M75.7,14.1C75,13.5,75,13,75.7,13
	c0.9,0.1,1.7,0.5,2.4,1.1c0.7,0.6,0.7,1.1,0,1.1C77.2,15.1,76.4,14.7,75.7,14.1L75.7,14.1z M77.8,9c0.9,0.1,1.7,0.5,2.3,1.1
	c0.7,0.6,0.7,1.1,0,1.1c-0.9-0.1-1.7-0.5-2.3-1.1C77.2,9.5,77.2,9,77.8,9L77.8,9z M77.6,16.9c0.9,0.1,1.7,0.5,2.3,1.1
	c0.7,0.6,0.7,1.1,0,1.1c-0.9-0.1-1.7-0.5-2.3-1.1C77,17.4,77,17,77.6,16.9L77.6,16.9z M80.1,14.1c-0.7-0.6-0.7-1.1,0-1.1
	c0.9,0.1,1.7,0.5,2.3,1.1c0.7,0.6,0.7,1.1,0,1.1C81.5,15.1,80.7,14.7,80.1,14.1L80.1,14.1z M82,16.9c0.9,0.1,1.7,0.5,2.3,1.1
	c0.7,0.6,0.7,1.1,0,1.1C83.5,19,82.7,18.6,82,18C81.4,17.4,81.3,16.9,82,16.9L82,16.9z M78.3,7.3c-0.9-0.1-1.7-0.5-2.3-1.1
	C75.9,6.1,75.8,6,75.7,6h1.7l1.3,1.2C78.6,7.3,78.5,7.3,78.3,7.3L78.3,7.3z M73.9,6.2c0.7,0.6,0.7,1.1,0,1.1
	c-0.9-0.1-1.7-0.5-2.3-1.1C71.5,6.1,71.4,6,71.4,6h2.3C73.7,6.1,73.8,6.1,73.9,6.2L73.9,6.2z M69.5,6.2c0.7,0.6,0.7,1.1,0,1.1
	c-0.9-0.1-1.7-0.5-2.3-1.1C67.1,6.1,67.1,6,67,6h2.3C69.4,6.1,69.4,6.1,69.5,6.2L69.5,6.2z M65.2,6.2c0.7,0.6,0.7,1.1,0,1.1
	c-0.9-0.1-1.7-0.5-2.3-1.1C62.8,6.1,62.7,6,62.6,6h2.3C65,6,65.1,6.1,65.2,6.2L65.2,6.2z M60.8,6.2c0.7,0.6,0.7,1.1,0,1.1
	c-0.9-0.1-1.7-0.5-2.4-1.1C58.4,6.1,58.3,6,58.3,6h2.3C60.6,6,60.7,6.1,60.8,6.2L60.8,6.2z M56.5,6.2c0.7,0.6,0.7,1.1,0,1.1
	c-0.9-0.1-1.7-0.5-2.3-1.1C54.1,6.1,54,6,53.9,6h2.3C56.3,6,56.4,6.1,56.5,6.2L56.5,6.2z M52.1,6.2c0.7,0.6,0.7,1.1,0,1.1
	c-0.9-0.1-1.7-0.5-2.4-1.1C49.7,6.1,49.6,6,49.5,6h2.3C51.9,6,52,6.1,52.1,6.2L52.1,6.2z M47.7,6.2c0.7,0.6,0.7,1.1,0,1.1
	c-0.9-0.1-1.7-0.5-2.3-1.1C45.3,6.1,45.3,6,45.2,6h2.3C47.6,6,47.6,6.1,47.7,6.2L47.7,6.2z M43.4,6.2c0.7,0.6,0.7,1.1,0,1.1
	c-0.9-0.1-1.7-0.5-2.3-1.1C41,6.1,40.9,6,40.8,6h2.3C43.2,6,43.3,6.1,43.4,6.2L43.4,6.2z M39,6.2c0.7,0.6,0.7,1.1,0,1.1
	c-0.9-0.1-1.7-0.5-2.3-1.1C36.6,6.1,36.5,6,36.5,6h2.3C38.8,6.1,38.9,6.1,39,6.2L39,6.2z M34.7,6.2c0.7,0.6,0.7,1.1,0,1.1
	c-0.9-0.1-1.7-0.5-2.3-1.1C32.3,6.1,32.2,6,32.1,6h2.3C34.5,6.1,34.6,6.1,34.7,6.2L34.7,6.2z M30.3,6.2c0.7,0.6,0.7,1.1,0,1.1
	c-0.9-0.1-1.7-0.5-2.4-1.1c-0.1-0.1-0.2-0.2-0.2-0.2H30C30.1,6.1,30.2,6.1,30.3,6.2L30.3,6.2z M25.9,6.2c0.7,0.6,0.7,1.1,0,1.1
	c-0.9-0.1-1.7-0.5-2.3-1.1c-0.1-0.1-0.2-0.2-0.2-0.2h2.2C25.7,6,25.8,6.1,25.9,6.2L25.9,6.2z M21.6,6.2c0.7,0.6,0.7,1.1,0,1.1
	c-0.9-0.1-1.7-0.5-2.4-1.1C19.2,6.1,19.1,6.1,19,6h2.2C21.4,6,21.5,6.1,21.6,6.2L21.6,6.2z M17.2,6.2c0.7,0.6,0.7,1.1,0,1.1
	c-0.1,0-0.2,0-0.3,0L15.5,6h1.4C17,6,17.1,6.1,17.2,6.2L17.2,6.2z M31.9,20.9c0.9,0.1,1.7,0.5,2.3,1.1c0.6,0.6,0.7,1.1,0.1,1.1
	L31.9,20.9z M38.2,24.8c0.9,0.1,1.7,0.5,2.3,1.1c0.7,0.6,0.7,1.1,0,1.1c-0.9-0.1-1.7-0.5-2.3-1.1C37.6,25.4,37.5,24.9,38.2,24.8
	L38.2,24.8z M40.6,22c-0.7-0.6-0.7-1.1,0-1.1c0.9,0.1,1.7,0.5,2.3,1.1c0.7,0.6,0.7,1.1,0,1.1C42.1,23,41.3,22.6,40.6,22L40.6,22z
	 M42.5,24.8c0.9,0.1,1.7,0.5,2.3,1.1c0.7,0.6,0.7,1.1,0,1.1C44,27,43.2,26.6,42.6,26C41.9,25.4,41.9,24.9,42.5,24.8L42.5,24.8z
	 M45,22c-0.7-0.6-0.7-1.1,0-1.1c0.9,0.1,1.7,0.5,2.3,1.1c0.7,0.6,0.7,1.1,0,1.1C46.4,23,45.6,22.6,45,22L45,22z M46.9,24.8
	c0.9,0.1,1.7,0.5,2.4,1.1c0.7,0.6,0.7,1.1,0,1.1c-0.9-0.1-1.7-0.5-2.3-1.1C46.3,25.4,46.3,24.9,46.9,24.8L46.9,24.8z M49.3,22
	c-0.7-0.6-0.7-1.1,0-1.1c0.9,0.1,1.7,0.5,2.3,1.1c0.7,0.6,0.7,1.1,0,1.1C50.8,23,50,22.6,49.3,22L49.3,22z M51.3,24.8
	c0.9,0.1,1.7,0.5,2.3,1.1c0.7,0.6,0.7,1.1,0,1.1c-0.9-0.1-1.7-0.5-2.4-1.1C50.6,25.4,50.6,24.9,51.3,24.8L51.3,24.8z M53.7,22
	c-0.7-0.6-0.7-1.1,0-1.1c0.9,0.1,1.7,0.5,2.3,1.1c0.7,0.6,0.7,1.1,0,1.1C55.2,23,54.3,22.6,53.7,22L53.7,22z M55.6,24.8
	c0.9,0.1,1.7,0.5,2.4,1.1c0.7,0.6,0.7,1.1,0,1.1c-0.9-0.1-1.7-0.5-2.3-1.1C55,25.4,55,24.9,55.6,24.8L55.6,24.8z M58,22
	c-0.7-0.6-0.7-1.1,0-1.1c0.9,0.1,1.7,0.5,2.4,1.1c0.7,0.6,0.7,1.1,0,1.1C59.5,23,58.7,22.6,58,22L58,22z M60,24.8
	c0.9,0.1,1.7,0.5,2.3,1.1c0.7,0.6,0.7,1.1,0,1.1c-0.9-0.1-1.7-0.5-2.3-1.1C59.3,25.4,59.3,24.9,60,24.8L60,24.8z M62.4,22
	c-0.7-0.6-0.7-1.1,0-1.1c0.9,0.1,1.7,0.5,2.3,1.1c0.7,0.6,0.7,1.1,0,1.1C63.9,23,63.1,22.6,62.4,22L62.4,22z M64.3,24.8
	c0.9,0.1,1.7,0.5,2.3,1.1c0.7,0.6,0.7,1.1,0,1.1c-0.9-0.1-1.7-0.5-2.3-1.1C63.7,25.4,63.7,24.9,64.3,24.8L64.3,24.8z M66.8,22
	c-0.7-0.6-0.7-1.1,0-1.1c0.9,0.1,1.7,0.5,2.4,1.1c0.7,0.6,0.7,1.1,0,1.1C68.2,23,67.4,22.6,66.8,22L66.8,22z M68.7,24.8
	c0.9,0.1,1.7,0.5,2.3,1.1c0.7,0.6,0.7,1.1,0,1.1c-0.9-0.1-1.7-0.5-2.3-1.1C68.1,25.4,68,24.9,68.7,24.8L68.7,24.8z M71.1,22
	c-0.7-0.6-0.7-1.1,0-1.1c0.9,0.1,1.7,0.5,2.3,1.1c0.7,0.6,0.7,1.1,0,1.1C72.6,23,71.8,22.6,71.1,22L71.1,22z M73,24.8
	c0.9,0.1,1.7,0.5,2.3,1.1c0.7,0.6,0.7,1.1,0,1.1c-0.9-0.1-1.7-0.5-2.4-1.1C72.4,25.3,72.4,24.8,73,24.8L73,24.8z M75.5,22
	c-0.7-0.6-0.7-1.1,0-1.1c0.9,0.1,1.7,0.5,2.3,1.1c0.7,0.6,0.7,1.1,0,1.1C77,23,76.1,22.6,75.5,22L75.5,22z M77.4,24.8
	c0.9,0.1,1.7,0.5,2.4,1.1c0.7,0.6,0.7,1.1,0,1.1c-0.9-0.1-1.7-0.5-2.3-1.1C76.8,25.3,76.8,24.8,77.4,24.8L77.4,24.8z M79.8,22
	c-0.7-0.6-0.7-1.1,0-1.1c0.9,0.1,1.7,0.5,2.3,1.1c0.7,0.6,0.7,1.1,0,1.1C81.3,23,80.5,22.6,79.8,22L79.8,22z M81.8,24.8
	c0.9,0.1,1.7,0.5,2.3,1.1c0.7,0.6,0.7,1.1,0,1.1c-0.9-0.1-1.7-0.5-2.4-1.1C81.1,25.3,81.1,24.8,81.8,24.8L81.8,24.8z M84.2,22
	c-0.7-0.6-0.7-1.1,0-1.1c0.9,0.1,1.7,0.5,2.3,1.1c0.7,0.6,0.7,1.1,0,1.1C85.7,23,84.9,22.6,84.2,22L84.2,22z M86.1,24.8
	c0.9,0.1,1.7,0.5,2.4,1.1c0.7,0.6,0.7,1.1,0,1.1c-0.9-0.1-1.7-0.5-2.3-1.1C85.5,25.3,85.5,24.8,86.1,24.8L86.1,24.8z M88.6,22
	c-0.7-0.6-0.7-1.1,0-1.1c0.9,0.1,1.7,0.5,2.4,1.1c0.7,0.6,0.7,1.1,0,1.1C90,23,89.2,22.6,88.6,22L88.6,22z M90.5,24.8
	c0.9,0.1,1.7,0.5,2.3,1.1c0.7,0.6,0.7,1.1,0,1.1c-0.9-0.1-1.7-0.5-2.3-1.1C89.9,25.3,89.8,24.8,90.5,24.8L90.5,24.8z M39.7,28
	l61.3-0.2l8.5,7.9H48.2L39.7,28z"/>
</svg>
