<?xml version="1.0" encoding="utf-8"?>
<!-- Generator: Adobe Illustrator 27.0.0, SVG Export Plug-In . SVG Version: 6.00 Build 0)  -->
<svg version="1.1" id="Layer_1" xmlns="http://www.w3.org/2000/svg" xmlns:xlink="http://www.w3.org/1999/xlink" x="0px" y="0px"
	 viewBox="0 0 115 45.2" style="enable-background:new 0 0 115 45.2;" xml:space="preserve">
<path id="Path_3300" style="fill:#161514;" d="M114.6,42.4c-0.6-4.3-2.3-6.2-13.2-14.4c-7.9-6-12.8-10.4-16.8-14
	c-1.7-1.5-3.2-2.9-4.8-4.2c-0.8-0.7-1.5-1.4-2.3-2.1C73.7,4.1,69.4,0.1,60.1,0C52-0.1,48.9,3.3,46,6.6c-1.4,1.8-3.1,3.3-5,4.5
	c-3.9,1.9-8.1,3-12.4,3.4c-2.4,0.1-4.7,1.1-6.5,2.6l-0.6,0.7c-4.3,4.9-7.7,8.7-8.4,9.6c-0.9,1.2-9.8,13.4-10.2,13.9L0,45.2h115
	L114.6,42.4z M101.4,35c0.5,0.1,1,0.2,1.5,0.4c2,1.5,3.9,3.1,5.6,5H9.7c1.7-2.4,3.9-5.3,5.4-7.4c1-0.1,2.3-0.1,3.1-0.1
	c1.5,0.1,2.9,0,4.4-0.2c2.4-0.4,5.1-1.8,8.3-3.4c4.8-2.5,10.2-5.2,15.8-5.1c3.4,0.1,8.6,2.1,14.2,4.1c4.1,1.7,8.4,3.1,12.7,4.2
	c12.2,2.9,17.5,2.6,21.7,2.4C97.3,34.6,99.4,34.7,101.4,35z M25.1,21.1l0.6-0.6c1-0.6,2.1-1,3.2-1.1c5.1-0.4,10.1-1.8,14.6-4.1
	c2.3-1.5,4.4-3.3,6.2-5.4c2.6-2.9,4.4-5,10.2-5H60c7.4,0.1,10.5,2.9,14.1,6.3c0.8,0.7,1.6,1.5,2.5,2.3c1.5,1.3,3,2.6,4.7,4.1
	c4,3.6,9,8.1,16.9,14.1c-1,0-2,0-3,0.1c-4,0.2-9.1,0.5-20.9-2.3c-4.2-1.1-8.3-2.5-12.4-4.1c-5.8-2.2-11.3-4.2-15.2-4.3
	c-6.3-0.2-12.4,2.9-17.2,5.4c-2.8,1.4-5.4,2.8-7.5,3.2c-1.3,0.2-2.5,0.2-3.8,0.2c-0.3,0-0.6,0-0.9,0C18.7,28.4,22.5,24.1,25.1,21.1
	L25.1,21.1z"/>
</svg>
