<?xml version="1.0" encoding="utf-8"?>
<!-- Generator: Adobe Illustrator 27.0.0, SVG Export Plug-In . SVG Version: 6.00 Build 0)  -->
<svg version="1.1" id="Layer_1" xmlns="http://www.w3.org/2000/svg" xmlns:xlink="http://www.w3.org/1999/xlink" x="0px" y="0px"
	 viewBox="0 0 115 24.8" style="enable-background:new 0 0 115 24.8;" xml:space="preserve">
<g id="Group_3316" transform="translate(-279.855 -321.558)">
	<path id="Path_3297" style="fill:#161514;" d="M394.9,346.4h-115l2.9-3.9c0,0,4.5-6.1,7.5-10.2c1.6-2.1,4.8-2.1,7.8-2.1
		c1.2,0,2.4,0,3.6-0.1c1.9-0.3,4.4-1.6,7.2-3c4.9-2.5,11.1-5.7,17.7-5.5c4,0.1,9.6,2.2,15.4,4.3c4,1.6,8.1,2.9,12.2,4
		c11.7,2.7,16.6,2.5,20.6,2.2c2.3-0.2,4.6-0.1,6.8,0.2c3.5,0.5,10.7,3.5,12.6,11L394.9,346.4z M289.6,341.5h98.4
		c-1.8-2.2-4.3-3.7-7.1-4.3c-1.9-0.3-3.9-0.3-5.8-0.1c-4.3,0.2-9.6,0.5-21.9-2.4c-4.3-1.1-8.6-2.5-12.8-4.2
		c-5.2-1.9-10.6-3.9-13.9-4c-5.3-0.1-10.6,2.5-15.3,4.9c-3.2,1.6-5.9,3-8.5,3.5c-1.5,0.2-3,0.3-4.5,0.2c-1.3-0.1-2.6,0-3.9,0.2
		C292.7,337.3,291,339.6,289.6,341.5L289.6,341.5z"/>
</g>
</svg>
