<?xml version="1.0" encoding="utf-8"?>
<!-- Generator: Adobe Illustrator 27.0.0, SVG Export Plug-In . SVG Version: 6.00 Build 0)  -->
<svg version="1.1" id="Layer_1" xmlns="http://www.w3.org/2000/svg" xmlns:xlink="http://www.w3.org/1999/xlink" x="0px" y="0px"
	 viewBox="0 0 104 58.8" style="enable-background:new 0 0 104 58.8;" xml:space="preserve">
<path id="Path_3310" style="fill:#161514;" d="M103.8,56.4c-0.1-0.7-0.6-6.6-0.8-7.9c-0.3-1.6-1-3.1-1.9-4.5
	c-0.5-0.8-0.9-1.6-1.3-2.5c-0.4-0.9-0.7-1.9-0.9-2.8c-0.7-2.4-1.5-5.1-3.2-6.8c-1-1-4.7-4.4-7.9-7.4c-2.3-2.1-4.4-4.1-5-4.7
	c-0.6-0.8-1.1-1.7-1.5-2.7c-0.7-1.9-1.8-3.7-3.2-5.2c-1.8-1.8-4.1-2.3-6.5-2.8c-4.6-0.7-9-2.7-12.5-5.8C57,1.6,55,0,52.6,0
	C46.2,0,42,6.1,39.9,9.1c-0.3,0.4-0.6,0.9-0.8,1.1c-0.2,0.2-0.5,0.4-0.9,0.7c-1.4,0.9-2.6,2-3.5,3.3c-2.1,3.3-4,6.7-5.7,10.2
	c-0.3,0.7-2.1,2.3-3.4,3.4c-1.1,0.9-2.2,1.9-3.2,3c-0.6,0.7-1.8,2-3.2,3.5c-3.9,4.4-7,7.8-7.6,8.5c-0.8,1.1-8.9,12-9.2,12.5L0,58.8
	h104L103.8,56.4z M16.5,47.7c1.3,0.1,2.6,0,4-0.2c2.2-0.4,4.7-1.6,7.5-3.1c4.3-2.2,9.2-4.7,14.3-4.6c3.1,0.1,7.8,1.8,12.9,3.7
	c3.8,1.5,7.6,2.7,11.5,3.8c11.1,2.6,15.8,2.3,19.7,2.1c1.8-0.2,3.7-0.1,5.5,0.1c2,0.4,3.8,1.2,5.4,2.5c0.3,0.3,0.6,0.6,0.9,0.8
	c0.4,0.4,0.7,0.8,1.1,1.3l0,0.1H8.8c1.6-2.1,3.5-4.7,4.9-6.6C14.6,47.7,15.8,47.7,16.5,47.7z M86.2,46.8c-3.7,0.2-8.2,0.4-18.9-2.1
	c-3.8-1-7.5-2.2-11.2-3.7c-5.2-1.9-10.2-3.8-13.7-3.9c-5.7-0.2-11.2,2.6-15.6,4.8c-2.1,1.2-4.4,2.2-6.7,2.8
	c-1.1,0.1-2.3,0.2-3.4,0.1c-0.3,0-0.5,0-0.8,0c1.2-1.4,4.6-5.2,7-7.8c0.7-0.8,1.4-1.5,1.9-2.2c0.5-0.1,0.9-0.2,1.4-0.3
	c4.5-0.3,8.8-1.5,12.8-3.5c2-1.3,3.8-2.8,5.4-4.7c2.4-2.7,4.3-4.8,9.9-4.8h0.2c7.1,0,10,2.7,13.4,5.9c0.7,0.7,1.4,1.3,2.2,2
	c1.4,1.1,2.7,2.3,4.2,3.7c3.6,3.3,8.2,7.3,15.4,12.8l0.8,0.6C89,46.7,87.6,46.7,86.2,46.8L86.2,46.8z M28.7,31c2-1.7,3.8-3.4,4.5-5
	c1.5-3.2,3.3-6.3,5.2-9.3c0.7-0.9,1.5-1.7,2.5-2.3c0.4-0.3,0.8-0.6,1.2-0.9c0.6-0.6,1.1-1.2,1.5-1.9c1.7-2.5,4.9-7.1,9-7.1
	c0.8,0,2.3,1.2,3.6,2.3c1.5,1.3,3.2,2.5,5,3.5c3,1.6,6.1,2.6,9.4,3.2c2.2,0.4,3.4,0.7,4.2,1.6c1,1.2,1.7,2.5,2.3,3.9
	c0.6,1.5,1.4,2.9,2.4,4.1c0.7,0.7,2.7,2.6,5.1,4.8c3.2,3,6.8,6.3,7.8,7.3c0.9,0.9,1.6,3.1,2.1,4.9c0.3,1.1,0.7,2.2,1.1,3.3
	c0.5,1,1,2,1.6,2.9c0.6,0.9,1.1,1.9,1.3,2.9c0,0.2,0.1,0.4,0.1,0.8l-0.1-0.1c-1.7-1.4-4-3.3-7.3-5.7c-7.1-5.4-11.6-9.4-15.2-12.6
	c-1.5-1.3-2.9-2.6-4.3-3.8c-0.7-0.6-1.4-1.3-2.1-1.9c-3.5-3.2-7.1-6.5-15.2-6.6h-0.2c-6.8,0-9.4,2.9-11.9,5.6
	c-1.3,1.6-2.9,3-4.7,4.2c-3.1,1.5-6.5,2.5-9.9,3C28,31.6,28.4,31.3,28.7,31L28.7,31z"/>
</svg>
