<svg xmlns="http://www.w3.org/2000/svg" viewBox="0 0 130.1 57" xml:space="preserve">
  <path d="M8.9 26.4c4.3 0 7.9-5.7 7.9-12.7S13.3 1.1 8.9 1.1 1.1 6.7 1.1 13.7s3.5 12.7 7.8 12.7" fill="#ffb400"/>
  <path d="M8.9 26.4c4.3 0 7.9-5.7 7.9-12.7S13.3 1.1 8.9 1.1 1.1 6.7 1.1 13.7s3.5 12.7 7.8 12.7z" fill="none" stroke="#161514" stroke-width="2.125" stroke-linejoin="round"/>
  <path d="M12.7 25.3c4.1 0 7.3-5.2 7.3-11.6S16.8 2.2 12.7 2.2 5.4 7.3 5.4 13.7s3.3 11.6 7.3 11.6" fill="#ffb400"/>
  <path d="M12.7 25.3c4.1 0 7.3-5.2 7.3-11.6S16.8 2.2 12.7 2.2 5.4 7.3 5.4 13.7s3.3 11.6 7.3 11.6z" fill="none" stroke="#161514" stroke-linejoin="round"/>
  <path d="M62.8 55.5c-1.5.7-10.3 1.7-10-8.9-4.4-2.2-6.1-5-4.2-10.5-5.4-2.2-5.5-3.3-5.9-5.9s.4-5.9 1.8-6.8 1.7-1.6 1.7-1.6-7.6.1-10.9-1c-4.8-.2-11.5-1.5-14.4-1.8s-8-.7-7.8-6.1 6.5-5.4 12.6-5c2.8.1 5.6.3 8.3.7 1 .2 3.7-.2 5 .4s3-.4 5 .2 4-1.2 5.8-.3 3.5-.7 5-.2 4.1-1.3 6.1-.9c1.9.2 3.8.2 5.7-.1" fill="#fff"/>
  <path d="M62.8 55.5c-1.5.7-10.3 1.7-10-8.9-4.4-2.2-6.1-5-4.2-10.5-5.4-2.2-5.5-3.3-5.9-5.9s.4-5.9 1.8-6.8 1.7-1.6 1.7-1.6-7.6.1-10.9-1c-4.8-.2-11.5-1.5-14.4-1.8s-8-.7-7.8-6.1 6.5-5.4 12.6-5c2.8.1 5.6.3 8.3.7 1 .2 3.7-.2 5 .4s3-.4 5 .2 4-1.2 5.8-.3 3.5-.7 5-.2 4.1-1.3 6.1-.9c1.9.2 3.8.2 5.7-.1" fill="none" stroke="#161514" stroke-width="2.125" stroke-linecap="round" stroke-linejoin="round"/>
  <path d="M70.8 19.1c-1.3 1.5-3.1 3.9-9 5.5S49.5 28.4 47.1 23s6.5-7.8 9.1-9.4c2.7-1.7 5.5-3.3 8.4-4.6 2.6-1.1 3.9-4.1 9.8-2.6C79 5.2 84 6.1 88 8.9c3.7.9 5 1.3 5.3 2 1.3.2 5.5.6 6.8 1.5 2.6-.9 5.5.2 6.9 2.6 4.7-3.1 10.1-5 15.7-5.7.5-2 2.6-2.7 3.7.1 2.5 6.4 4.2 35.8.5 43.5-1.2 2.5-3.4 1.5-3.4 0-2.1.1-9.3.2-13.5-2-7.4 3-16.5 2.7-16.5 2.7s-12.7.7-17.1-.2c-2 .6-14 2-14 2" fill="#fff"/>
  <path d="M70.8 19.1c-1.3 1.5-3.1 3.9-9 5.5S49.5 28.4 47.1 23s6.5-7.8 9.1-9.4c2.7-1.7 5.5-3.3 8.4-4.6 2.6-1.1 3.9-4.1 9.8-2.6C79 5.2 84 6.1 88 8.9c3.7.9 5 1.3 5.3 2 1.3.2 5.5.6 6.8 1.5 2.6-.9 5.5.2 6.9 2.6 4.7-3.1 10.1-5 15.7-5.7.5-2 2.6-2.7 3.7.1 2.5 6.4 4.2 35.8.5 43.5-1.2 2.5-3.4 1.5-3.4 0-2.1.1-9.3.2-13.5-2-7.4 3-16.5 2.7-16.5 2.7s-12.7.7-17.1-.2c-2 .6-14 2-14 2" fill="none" stroke="#161514" stroke-width="2.125" stroke-linecap="round" stroke-linejoin="round"/>
  <path d="M48.2 36.2c4.1.6 16.5 0 20.3-.9s5.6-3.3 5.6-6.5-3.7-5.8-8.4-5.6" fill="none" stroke="#161514" stroke-width="2.125" stroke-linecap="round" stroke-linejoin="round"/>
  <path d="M52.8 46.8c5.6-.5 11.2-1.2 16.7-2.3 4.8-1 13.2-2.7 13.4-7.4S78 31 75.6 31.8c-.9.2-1.8.6-2.7 1.1" fill="none" stroke="#161514" stroke-width="2.125" stroke-linecap="round" stroke-linejoin="round"/>
  <path d="M61.8 55.8c5.1-2.1 13.7-5.2 15.6-6.7s1.1-5.3-1-6.1" fill="none" stroke="#161514" stroke-width="2.125" stroke-linecap="round" stroke-linejoin="round"/>
  <path d="M57.9 26.3s14.1-1.9 15.3 2.5" fill="none" stroke="#161514" stroke-linejoin="round" stroke-dasharray="2.269,1.571"/>
  <path d="M15.6 13.9c1.9 1 3.8 1.7 5.9 2.2" fill="none" stroke="#161514" stroke-linejoin="round" stroke-dasharray="2.235,1.537"/>
  <path d="M25.3 16.7c5.9.7 16.7 1.6 20.7 1.9" fill="none" stroke="#161514" stroke-width="1.005" stroke-linejoin="round" stroke-dasharray="1.996,1.298"/>
  <path d="M22.2 16.2c.3.1.7.1 1 .2.3 0 .6.1.9.1m-10.6-3.9.9.6" fill="none" stroke="#161514" stroke-linejoin="round"/>
  <path d="M69.6 35.1c3.3-.2 12.6-2.1 11.8 4.1" fill="none" stroke="#161514" stroke-linejoin="round" stroke-dasharray="2.064,1.366"/>
  <path d="M73.8 26.2c7.2 2 23 2.7 26.3-13.4" fill="#fff"/>
  <path d="M73.8 26.2c7.2 2 23 2.7 26.3-13.4" fill="none" stroke="#161514" stroke-width="1.005" stroke-linejoin="round"/>
  <path d="M59.1 15.7c-3.3 1.7-11.3 4.8-11.1 8" fill="none" stroke="#161514" stroke-linejoin="round" stroke-dasharray="2.008,1.31"/>
  <path d="M106.8 15.3c.7 3.9 5.6 12.6 2.9 35.5" fill="none" stroke="#161514" stroke-linejoin="round" stroke-dasharray="2.02,1.322"/>
</svg>