<?xml version="1.0" encoding="utf-8"?>
<!-- Generator: Adobe Illustrator 27.0.0, SVG Export Plug-In . SVG Version: 6.00 Build 0)  -->
<svg version="1.1" id="Layer_1" xmlns="http://www.w3.org/2000/svg" xmlns:xlink="http://www.w3.org/1999/xlink" x="0px" y="0px"
	 viewBox="0 0 73.1 70.2" style="enable-background:new 0 0 73.1 70.2;" xml:space="preserve">
<g id="Group_3325" transform="translate(-304.307 -217.667)">
	<path id="Path_3303" style="fill:#161514;" d="M337.3,275.3h27.6L352.6,263l0,0l-2.1-2.1l-1.1-1.1l0,0l-11.9-11.9v-13.2h5l-18.5-17
		l-19.6,16.8h4.6v12.8l1,0.8l14.8,14.4L337.3,275.3z M357.2,272.1h-18.5l-9.1-9.2h18.5L357.2,272.1z M326.4,259.8l-9.1-8.9H336
		l8.9,8.9H326.4z"/>
	<path id="Path_3304" style="fill:#161514;" d="M374.3,284.8h-4.5l3.1,3.1h4.5L374.3,284.8z"/>
	<path id="Path_3305" style="fill:#161514;" d="M370.2,280.6h-4.5l3.1,3.1h4.5L370.2,280.6z"/>
	<path id="Path_3306" style="fill:#161514;" d="M366,276.5h-4.5l3.1,3.1h4.5L366,276.5z"/>
	<path id="Path_3307" style="fill:#161514;" d="M346.6,284.8l3.1,3.1h4.5l-3.1-3.1H346.6z"/>
	<path id="Path_3308" style="fill:#161514;" d="M342.8,276.5h-4.5l3.1,3.1h4.5L342.8,276.5z"/>
	<path id="Path_3309" style="fill:#161514;" d="M347,280.6h-4.5l3.1,3.1h4.5L347,280.6z"/>
</g>
</svg>
