<svg xmlns="http://www.w3.org/2000/svg" viewBox="0 0 192 64" xml:space="preserve">
  <g fill="#000">
    <path d="M79.9 46.8c3.6-9.9 3-13.1-7-14.8l.1-.3c10-2.6 12.4-3.9 16.2-14.5C94.1 3.4 89.8 0 66.3 0H52.7C27.9 0 18.6 1.9 12.5 18.7l-1.3 3.5h19.2l1-2.7c1.7-4.7 4.2-6 10.7-6h20.1c6 0 8.8 1.2 7 6-1.6 4.5-3.4 6.1-9.9 6.1H40.4l-4.7 13h20.8c6.2 0 6.6 1.9 5.1 6-1.5 4.2-2.9 5.9-9.2 5.9H28.2c-7 0-8.3-1.4-6.3-6.6l1-2.8H3.8l-2.4 6.7c-4.8 13 4 16.2 15.7 16.2l33.6-.1c18.4 0 24.7-4.8 29.2-17.1z"/>
    <path d="M192 .8h-26.3l-28.5 22L124.6 1H98.3l18.9 31.2-43.9 31.6h27.3L130.7 41l13.6 22.8h27.3l-21.1-31.4L192 .8z"/>
  </g>
</svg>