<svg xmlns="http://www.w3.org/2000/svg" viewBox="0 0 197 64" xml:space="preserve">
  <g fill="#000">
    <path d="M23.5 50.3c2-5.7 3.9-7.2 12.5-7.7l21.3-1.1c24.1-1.3 28.7-4.4 35.4-23C97.4 5.4 94.4 0 75.4 0H48.8C30.6 0 21.4 4.2 16.9 16.7l-2.7 7.4h19.2l1-2.7c2.3-6.5 5.4-7.8 14-7.8h13.4c12.9 0 13.1 1.1 11.2 6.3-2.2 6.2-3.3 6.5-18.4 7.4L31 28.7c-13.4.9-20.5 6.1-23.3 13.8L0 64l77.3-.1 4.9-13.6H23.5zM197 .2h-26.3l-28.5 22.2L129.6.3h-26.3l18.9 31.6-43.9 31.9h27.3l30.1-23.1 13.6 23h27.3L155.5 32 197 .2z"/>
  </g>
</svg>