<svg xmlns="http://www.w3.org/2000/svg" width="238.024" height="230.028"><g data-name="Artwork 3"><g data-name="Group 2505"><path data-name="Path 814" d="M86.722 61.812h-65.5L0 82.112v29.83h238.024v-29.83l-21.224-20.3z" fill="#ffc211"/><path data-name="Path 815" d="M150.072 119.012H0v29.522l19.989 21.527H216.8l21.219-21.527v-29.522z"/><path data-name="Path 816" d="M32.598 99.636v-24.6h16.914v4.92H37.826v4.613h10.148v4.613H37.826v5.535h11.686v4.919z"/><path data-name="Path 817" d="M68.27 99.636l-5.228-8.611-5.228 8.611h-6.15l8.3-12.609-7.685-11.991h5.843l4.92 7.688 4.922-7.688h5.843l-8 11.993 8.614 12.607z"/><path data-name="Path 818" d="M87.337 79.956v19.68H82.11v-19.68h-6.766v-4.92h18.759v4.92z"/><path data-name="Path 819" d="M97.485 99.636v-24.6h16.914v4.92h-11.686v4.613h10.148v4.613h-10.148v5.535h11.686v4.919z"/><path data-name="Path 820" d="M132.85 99.636l-9.226-14.144v14.144h-4.92v-24.6h4l8.918 13.839V75.036h5.228v24.6z"/><path data-name="Path 821" d="M149.149 99.636h-7.073v-24.6h7.073c9.533 0 11.686 3.075 11.686 12.3s-2.153 12.3-11.686 12.3m6.766-14.146c0-4.613-.923-5.535-5.535-5.535h-3.076v14.763h3.072c4.613 0 5.535-.923 5.535-5.535z"/><path data-name="Path 822" d="M165.141 99.636v-24.6h16.914v4.92h-11.994v4.613h10.456v4.613h-10.456v5.535h11.994v4.919z"/><path data-name="Path 823" d="M193.125 99.636h-7.073v-24.6h7.073c9.533 0 11.686 3.075 11.686 12.3s-2.153 12.3-11.686 12.3m6.766-14.146c0-4.613-.923-5.535-5.535-5.535h-3.076v14.763h3.072c4.613 0 5.535-.923 5.535-5.535z"/><path data-name="Path 824" d="M49.203 156.528h-5.535l-3.69-15.069-3.691 15.069h-5.843l-5.535-24.6h5.228l3.383 16.3 4.305-16.3h4l4.613 16.3 3.38-16.3h5.228z" fill="#fff"/><path data-name="Path 825" d="M72.883 156.528l-2.153-6.151h-8.3l-2.155 6.151h-5.228l9.533-24.6h4.305l9.533 24.6zm-6.15-17.221l-2.46 6.458h4.613z" fill="#fff"/><path data-name="Path 826" d="M94.103 156.528l-4.92-8.3c-.615-1.23-.923-1.538-2.46-1.538h-1.23v9.838h-5.229v-24.6h8.918c4.92 0 8.611 2.153 8.611 7.381a6.766 6.766 0 01-4.613 6.766l6.766 10.453zm-4.921-19.68h-4v5.535h4c1.845 0 3.383-.615 3.383-2.768s-1.538-2.768-3.383-2.768" fill="#fff"/><path data-name="Path 827" d="M117.167 156.528l-4.92-8.3c-.615-1.23-.923-1.538-2.46-1.538h-1.23v9.838h-5.229v-24.6h8.918c4.92 0 8.611 2.153 8.611 7.381a6.766 6.766 0 01-4.613 6.766l6.766 10.453zm-4.613-19.68h-4.306v5.535h4c1.845 0 3.383-.615 3.383-2.768s-1.538-2.768-3.383-2.768" fill="#fff"/><path data-name="Path 828" d="M140.846 156.528l-2.153-6.151h-8l-2.148 6.151h-5.535l9.533-24.6h4.305l9.533 24.6zm-6.15-17.221l-2.46 6.458h4.613z" fill="#fff"/><path data-name="Path 829" d="M162.988 156.528l-9.226-14.144v14.144h-4.92v-24.6h4l8.918 13.839v-13.839h5.228v24.6z" fill="#fff"/><path data-name="Path 830" d="M182.362 136.848v19.68h-4.92v-19.68h-7.073v-4.92h18.759v4.92z" fill="#fff"/><path data-name="Path 831" d="M203.889 148.228v8.3h-4.924v-8.3l-8.3-16.3h5.535l5.228 10.763 4.921-10.763h5.535z" fill="#fff"/><path data-name="Path 832" d="M214.037 31.368L120.242 0h-2.768l-94.41 31.368a3.383 3.383 0 00-2.153 3.69v20.3h12.3V40.593l85.8-28.6 85.492 28.6v14.761h11.993v-20.3a3.69 3.69 0 00-2.46-3.69" fill="#666"/><path data-name="Path 833" d="M168.831 176.519c-13.531 15.376-30.137 31.675-49.819 40.593-19.989-8.918-37.518-25.217-50.741-40.593H52.587c16.3 21.527 38.748 41.823 63.965 52.587l2.46.923 2.46-.923c25.215-11.071 46.744-31.368 63.043-52.587z" fill="#666"/></g></g></svg>