<svg xmlns="http://www.w3.org/2000/svg" width="239" height="239"><g data-name="Group 2643" transform="translate(-1412 -638)"><circle data-name="Ellipse 249" cx="119.5" cy="119.5" r="119.5" transform="translate(1412 638)" fill="none"/><g data-name="Path 794" fill="#fff" stroke-linecap="round" stroke-linejoin="round"><path d="M1575.926 830.35c-4.187 0-8.591-.96-12.736-2.773-4.318-1.889-8.26-4.614-11.717-8.1-5.054-5.095-8.256-11.075-9.26-17.293-.483-2.987-.45-5.97.098-8.864a24.637 24.637 0 012.309-6.716l-10.964-10.885-2.255.642a7.624 7.624 0 01-1.965 6.164l-40.048 43.124a11.687 11.687 0 01-4.02 2.823c-1.475.626-3.04.944-4.651.944-3 0-5.856-1.119-8.043-3.15l-8.07-7.495a11.744 11.744 0 01-3.76-8.229 11.742 11.742 0 013.14-8.484l40.052-43.123a7.648 7.648 0 016.125-2.41l.65-3.483-9.988-9.914a24.916 24.916 0 01-11.429 2.766c-3.76 0-7.508-.815-11.14-2.424-3.766-1.668-7.29-4.142-10.475-7.354a39.218 39.218 0 01-4.837-5.927 36.731 36.731 0 01-3.41-6.437c-1.783-4.38-2.61-8.992-2.393-13.338.02-.382.076-1.549 2.358-3.207.935-.68 2.308-1.489 3.545-1.489.69 0 1.32.248 1.778.699l16.67 16.143c.291.077.99.2 2.114.2 1.672 0 7.433-.327 11.352-4.517 2.545-2.72 3.532-5.809 3.912-7.92.432-2.403.21-4.156.042-4.724l-16.667-16.143-.014-.014-.014-.014c-.55-.555-1.061-1.585-.37-3.343.322-.822.909-1.81 1.568-2.646 1.009-1.277 1.885-1.863 2.841-1.902.382-.016.773-.025 1.16-.025 4.187 0 8.591.959 12.736 2.772 4.317 1.89 8.26 4.614 11.717 8.1 5.054 5.095 8.256 11.075 9.26 17.294.483 2.987.45 5.97-.097 8.864a24.634 24.634 0 01-2.31 6.718l16.02 15.9 31.317-34.57.638-1.218 7.068-13.5.279-.534.526-.29 9.975-5.503 1.25-.69 1.06.96 6.16 5.581 1.016.92-.49 1.278-4.137 10.79-.223.582-.513.352-12.498 8.581-1.267.87-31.603 34.887 19.22 19.08a24.912 24.912 0 0111.43-2.769c3.759 0 7.507.816 11.139 2.425 3.765 1.668 7.29 4.142 10.475 7.353a39.218 39.218 0 014.836 5.928 36.73 36.73 0 013.41 6.436c1.783 4.38 2.61 8.993 2.393 13.339-.02.384-.078 1.55-2.359 3.208-.934.679-2.308 1.489-3.544 1.489-.69 0-1.32-.249-1.78-.7l-16.667-16.143c-.291-.077-.99-.2-2.112-.2-1.673 0-7.434.326-11.355 4.516-2.545 2.72-3.532 5.81-3.912 7.92-.432 2.404-.21 4.156-.042 4.724l16.667 16.144.015.014.014.014c.55.555 1.06 1.585.37 3.342-.323.822-.91 1.812-1.569 2.646-1.008 1.277-1.885 1.864-2.84 1.903a27.83 27.83 0 01-1.16.024z"/><path d="M1575.926 828.35c.361 0 .72-.008 1.079-.023.886-.037 3.413-3.766 2.7-4.485l-16.873-16.343c-.896-.904-1.62-9.144 4.092-15.247 5.71-6.102 15.225-5.482 16.12-4.579l16.875 16.344c.711.718 4.24-1.783 4.285-2.67.405-8.107-3.045-17.12-10.062-24.193-9.987-10.068-22.593-11.563-31.966-5.94l-21.643-21.485 34.2-37.752.303.274 12.498-8.582 4.137-10.79-6.162-5.583-9.975 5.503-7.068 13.5.303.275-33.953 37.48-18.064-17.93c-.17-.172-.37-.295-.55-.453 5.605-9.313 4.184-21.859-5.755-31.879-7.017-7.073-16-10.597-24.111-10.257-.886.036-3.414 3.766-2.701 4.484l16.873 16.344c.897.903 1.618 9.143-4.091 15.247-5.71 6.103-15.226 5.482-16.12 4.578l-16.876-16.342c-.712-.718-4.24 1.782-4.284 2.668-.406 8.108 3.044 17.12 10.062 24.194 9.985 10.067 22.593 11.562 31.966 5.94l11.805 11.72-1.137 6.103 1.523 1.436c-2.28-2-5.778-1.847-7.855.39l-40.05 43.122c-3.678 3.96-3.446 10.21.514 13.887l8.07 7.495c3.96 3.678 10.208 3.447 13.887-.513l40.05-43.124c1.802-1.94 1.956-4.831.555-6.952l.723.682 4.984-1.419 12.353 12.263c.173.173.371.294.552.452-5.605 9.315-4.184 21.86 5.754 31.88 6.707 6.76 15.212 10.28 23.033 10.28m0 4c-9.217 0-18.647-4.18-25.873-11.464-5.35-5.393-8.743-11.75-9.815-18.383a27.596 27.596 0 01.107-9.554 26.637 26.637 0 011.856-5.928l-8.783-8.72a9.631 9.631 0 01-2.516 5.586l-40.049 43.123a13.674 13.674 0 01-4.703 3.303 13.826 13.826 0 01-5.433 1.103 13.772 13.772 0 01-9.404-3.684l-8.07-7.495a13.682 13.682 0 01-3.198-4.462 13.828 13.828 0 01-1.199-5.159 13.826 13.826 0 01.814-5.233 13.68 13.68 0 012.86-4.686l40.05-43.123a9.65 9.65 0 015.92-3l.16-.858-8.233-8.173a26.944 26.944 0 01-11.023 2.351c-4.04 0-8.061-.873-11.95-2.596-3.994-1.769-7.724-4.384-11.085-7.774a41.222 41.222 0 01-5.083-6.23 38.735 38.735 0 01-3.597-6.788c-1.892-4.649-2.769-9.556-2.537-14.192.082-1.683 1.123-3.23 3.18-4.725 1.707-1.242 3.296-1.871 4.72-1.871 1.216 0 2.342.45 3.176 1.269l16.225 15.712c.274.032.662.06 1.16.06 1.47 0 6.523-.28 9.893-3.882 2.103-2.248 2.974-4.8 3.334-6.546.336-1.63.32-3.004.235-3.735l-16.213-15.704a3.856 3.856 0 01-.057-.056c-.639-.644-1.997-2.467-.812-5.482.396-1.01 1.075-2.16 1.861-3.155.87-1.102 2.266-2.576 4.329-2.66.407-.018.826-.027 1.241-.027 9.216 0 18.646 4.179 25.873 11.463 5.35 5.394 8.744 11.75 9.815 18.384.52 3.217.484 6.432-.107 9.555a26.631 26.631 0 01-1.856 5.929l13.524 13.423 29.959-33.071c.073-.256.173-.508.3-.751l7.069-13.5a4 4 0 011.611-1.648l9.975-5.502a4 4 0 014.618.538l6.162 5.582a4 4 0 011.049 4.396l-4.137 10.79a4 4 0 01-1.47 1.866l-12.499 8.582c-.25.172-.514.312-.786.42l-30.451 33.614 16.86 16.738a26.94 26.94 0 0111.024-2.353c4.04 0 8.06.874 11.95 2.597 3.994 1.769 7.723 4.384 11.085 7.773a41.222 41.222 0 015.083 6.23 38.735 38.735 0 013.596 6.788c1.892 4.65 2.77 9.557 2.538 14.192-.086 1.687-1.126 3.232-3.18 4.726-1.709 1.242-3.297 1.872-4.721 1.872-1.217 0-2.341-.45-3.175-1.268l-16.226-15.714c-.273-.032-.66-.06-1.158-.06-1.47 0-6.524.28-9.894 3.882-2.104 2.248-2.975 4.8-3.335 6.546-.335 1.628-.32 3.004-.234 3.734l16.213 15.704.057.056c.638.644 1.996 2.468.812 5.482-.397 1.01-1.075 2.16-1.861 3.155-.871 1.102-2.267 2.577-4.33 2.661a29.8 29.8 0 01-1.24.026z" fill="#000"/></g><path data-name="Path 795" d="M1558.735 815.731c-3.365-4.352-7.8-8.651-9.174-14.156-1.293-5.182 1.777-10.231 3.476-15.01l-53.326-51.39c-4.726 1.838-9.682 5.056-14.9 3.915-5.543-1.211-9.971-5.52-14.419-8.754" fill="none" stroke="#000" stroke-linecap="round" stroke-linejoin="round" stroke-width="2"/><g data-name="Path 796" fill="none" stroke-linecap="round" stroke-linejoin="round"><path d="M1587.533 703.668l4.137-10.79-6.162-5.582-9.974 5.5-7.068 13.5.3.275-61.444 67.833 5.963 5.4 61.448-67.828.3.275z"/><path d="M1585.51 687.296l-9.975 5.502-7.068 13.501.303.275-61.448 67.83 5.963 5.402 61.448-67.83.303.274 12.498-8.582 4.138-10.79-6.162-5.582m0-2c.485 0 .966.176 1.342.518l6.162 5.582a2 2 0 01.525 2.198l-4.137 10.79a2 2 0 01-.735.933l-12.499 8.582a1.995 1.995 0 01-.766.318l-60.634 66.932a2 2 0 01-2.825.14l-5.964-5.402a2 2 0 01-.14-2.825l60.635-66.933c.022-.259.095-.516.221-.758l7.068-13.5a2 2 0 01.806-.824l9.975-5.502c.303-.167.635-.249.965-.249z" fill="#000"/></g><g data-name="Rectangle 1706" fill="#ffc629" stroke="#000" stroke-linecap="round" stroke-linejoin="round" stroke-width="2"><path d="M1512.44 759.034l16.278 15.119a4.225 4.225 0 01.22 5.97l-43.118 46.428a6.738 6.738 0 01-9.523.352l-12.595-11.698a6.738 6.738 0 01-.352-9.523l43.119-46.427a4.225 4.225 0 015.97-.22z" stroke="none"/><path d="M1513.12 758.301l16.279 15.119a5.225 5.225 0 01.273 7.384l-43.12 46.427a7.738 7.738 0 01-10.935.405l-12.596-11.699a7.738 7.738 0 01-.404-10.935l43.12-46.428a5.225 5.225 0 017.383-.273z" fill="none"/></g><g data-name="Path 797" fill="#ffc629" stroke-linecap="round" stroke-linejoin="round"><path d="M1528.978 776.01l-.414-.39-17.416-16.422-.397-.374.1-.536 1.446-7.765.333-1.786 1.33 1.236 23.682 21.994 1.301 1.208-1.708.486-7.71 2.194-.547.156z"/><path d="M1513.28 750.706l-1.446 7.765 17.416 16.422 7.712-2.194-23.682-21.993m0-2a2 2 0 011.361.535l23.682 21.993a2 2 0 01-.814 3.39l-7.711 2.193a2 2 0 01-1.92-.469l-17.416-16.422a2 2 0 01-.594-1.822l1.446-7.764a2 2 0 011.966-1.634z" fill="#000"/></g><path data-name="Line 58" fill="none" stroke="#000" stroke-linecap="round" stroke-linejoin="round" stroke-width="2" d="M1511.527 764.909l-40.656 43.776"/><path data-name="Line 59" fill="none" stroke="#000" stroke-linecap="round" stroke-linejoin="round" stroke-width="2" d="M1518.149 768.864l-45.31 48.787"/><path data-name="Line 60" fill="none" stroke="#000" stroke-linecap="round" stroke-linejoin="round" stroke-width="2" d="M1522.992 774.734l-42.709 45.987"/></g></svg>