<svg xmlns="http://www.w3.org/2000/svg" width="245" height="245"><g data-name="Group 2642" transform="translate(-280 -623)"><circle data-name="Ellipse 249" cx="122.5" cy="122.5" r="122.5" transform="translate(280 623)" fill="none"/><path data-name="Path 798" d="M367.228 754.814l-20.28 80.588 25.8-11.373 16.546 21.831 20.111-80.627z" fill="#fff"/><path data-name="Path 799" d="M367.228 754.814l-20.28 80.588 25.8-11.373 16.546 21.831 20.111-80.627z" fill="none" stroke="#1c1b1a" stroke-linecap="round" stroke-linejoin="round" stroke-width="2.125"/><path data-name="Path 800" d="M432.28 754.814l20.273 80.588-25.788-11.373-16.55 21.835-20.112-80.628z" fill="#fff"/><path data-name="Path 801" d="M432.28 754.814l20.273 80.588-25.788-11.373-16.55 21.835-20.112-80.628z" fill="none" stroke="#1c1b1a" stroke-linecap="round" stroke-linejoin="round" stroke-width="2.125"/><path data-name="Path 802" d="M398.968 657.545l53.588 30v60.134l-53.845 31.773-53.332-31.773v-57.924z" fill="#ffc629"/><path data-name="Path 803" d="M398.55 670.877l40.425 24.017v45.857l-40.618 24.884-40.227-24.458v-44.578z" fill="#fff"/><path data-name="Path 804" d="M399.42 778.468a10.184 10.184 0 01-5.076-1.359l-42.989-24.772a10.143 10.143 0 01-5.074-8.769v-49.541a10.138 10.138 0 015.074-8.769l42.989-24.779a10.339 10.339 0 0110.15 0l42.989 24.775a10.14 10.14 0 015.076 8.769v49.545a10.144 10.144 0 01-5.076 8.769l-42.989 24.771a10.178 10.178 0 01-5.074 1.36z" fill="none" stroke="#1c1b1a" stroke-linecap="round" stroke-linejoin="round" stroke-width="4"/><path data-name="Path 805" d="M399.232 764.961a7.947 7.947 0 01-3.978-1.067l-33.726-19.465a7.976 7.976 0 01-3.981-6.892v-38.929a7.976 7.976 0 013.981-6.892l33.727-19.464a8.084 8.084 0 017.956 0l33.726 19.465a7.976 7.976 0 013.981 6.892v38.928a7.976 7.976 0 01-3.981 6.892l-33.727 19.465a7.947 7.947 0 01-3.978 1.067m0-89.8a3.96 3.96 0 00-1.99.536l-33.724 19.466a3.991 3.991 0 00-1.99 3.446v38.928a3.986 3.986 0 001.99 3.446l33.724 19.463a4.014 4.014 0 003.98 0l33.724-19.463a3.991 3.991 0 001.99-3.446v-38.929a3.986 3.986 0 00-1.99-3.446L401.222 675.7a3.929 3.929 0 00-1.99-.536" fill="#fff"/><path data-name="Path 806" d="M399.232 764.961a7.947 7.947 0 01-3.978-1.067l-33.726-19.465a7.976 7.976 0 01-3.981-6.892v-38.929a7.976 7.976 0 013.981-6.892l33.727-19.464a8.084 8.084 0 017.956 0l33.726 19.465a7.976 7.976 0 013.981 6.892v38.928a7.976 7.976 0 01-3.981 6.892l-33.727 19.465a7.947 7.947 0 01-3.978 1.067zm0-89.8a3.96 3.96 0 00-1.99.536l-33.724 19.466a3.991 3.991 0 00-1.99 3.446v38.928a3.986 3.986 0 001.99 3.446l33.724 19.463a4.014 4.014 0 003.98 0l33.724-19.463a3.991 3.991 0 001.99-3.446v-38.929a3.986 3.986 0 00-1.99-3.446L401.222 675.7a3.929 3.929 0 00-1.99-.536z" fill="none" stroke="#1c1b1a" stroke-linecap="round" stroke-linejoin="round" stroke-width="2"/><path data-name="Path 807" d="M414.334 735.881c0 .931-.63 1.135-1.433 1.135h-1.693v-2.23h1.689c.772 0 1.433.176 1.433 1.094m2.946 7.074l-2.772-4.332a2.863 2.863 0 001.909-2.758c0-2.146-1.544-3.091-3.53-3.091h-3.735v10.183h2.086v-4.1h.51c.625 0 .758.161 1.062.686l2.045 3.414zm-13.289-4.374h-1.97l.976-2.729zm3.847 4.376l-3.935-10.182h-1.811l-3.908 10.182h2.244l.921-2.554h3.312l.919 2.554zm-10.678 0v-2.06h-4.9v-2.185h4.278v-1.967h-4.276v-1.912h4.9v-2.058h-6.99v10.182zm-8.443-10.182h-2.321l-2.085 4.461-2.1-4.461h-2.336l3.385 6.8v3.385h2.087v-3.36z" fill="#1c1b1a"/><text data-name="2" transform="translate(384.554 725.506)" font-size="52" font-family="AauxPro-Black, Aaux Pro" font-weight="800"><tspan x="0" y="0">2</tspan></text></g></svg>