<svg xmlns="http://www.w3.org/2000/svg" width="369.877" height="121.761">
  <g data-name="Group 2644">
    <path data-name="Rectangle 1711" fill="#ffc20f" d="M0 0h369.877v121.761H0z"/>
    <path data-name="Path 834" d="M32.118 121.761v-13.743h305.648v13.743" fill="#0067b1"/>
    <path data-name="Path 835" d="m151.688 75.629 4.03-9.1h-5.7l-8.863 19.861h-3.7c-.666 0-.918-.69-.6-1.4.488-1.077 4.425-9.738 4.425-9.738h-6.084s-4.918 10.94-4.987 11.138h-2.2c-.717 0-1.116-.581-.767-1.4.422-1 4.4-9.734 4.4-9.734h-6.1l-4.658 10.47a2.953 2.953 0 0 0-.225.666h-17.227c-2.643-.019-4.39-2.259-3.34-4.417 3.418-7.049 12.307-10.5 15.446-10.269 1.372.1 1.085 1.283.116 2.546a.374.374 0 0 0 .271.628h5.824c2.395-3.511 2.143-9.5-5.3-8.847-12.477 1.093-22.94 11.082-22.843 18.817.043 3.6 3.844 7.3 8.378 7.3h18.622l.825-1.918a4.179 4.179 0 0 0 3.394 1.918h5.254s.682-1.449.957-2a4.27 4.27 0 0 0 3.406 2h10.017l.535-1.124c3.511 2.825 10.517 2.1 13.683-5.743 2.1-5.2-.961-10.974-6.99-9.66m2.268 7.074c-.143 1.744-2.736 6.053-6.7 4.014-.256-.139-.182-.5-.085-.721.24-.55 2.17-4.991 2.453-5.623a2.165 2.165 0 0 1 .283-.147c1.469-.686 4.27-.147 4.053 2.476"/>
    <path data-name="Path 836" d="M275.359 89.219c0-.519-.3-.775-.949-.775h-1.05v2.72h.422v-1.17h.45l.74 1.17h.449l-.779-1.2a.7.7 0 0 0 .713-.744m-1.139.434h-.435v-.864h.558c.287 0 .6.054.6.415 0 .43-.345.45-.721.45"/>
    <path data-name="Path 837" d="M274.265 87.479a2.327 2.327 0 1 0 2.333 2.313 2.319 2.319 0 0 0-2.333-2.313m0 4.313a1.987 1.987 0 1 1 1.91-2 1.923 1.923 0 0 1-1.91 2"/>
    <path data-name="Path 838" d="M259.478 84.665c.36-.969 4.518-10.129 4.518-10.129h8.959a.634.634 0 0 0 .624-.384c.039-.081 1.992-4.274 1.992-4.274h-9.8l1.329-3.352h-5.929l-1.286 2.9c-.074.167-.256.407-.783.407h-3.1l-2.042 4.7h4.038l-5.151 11.857-11.482.012c-.244-.023-2.383.14-2.453-1.7h10.618a1.32 1.32 0 0 0 1.166-.721c1.36-2.883 1-7.215-3.108-8.6a11.6 11.6 0 0 0-11.028 3.092c-1.779 1.8-3.681 5.026-3.615 7.924h-2.84c-1.174 0-1.476-.864-1.069-1.736s8-18.135 8-18.135h-5.878l-4.53 9.835c-3.414-2.639-14.442.147-14.62 10.048h-3.149c-1.124 0-1.368-.853-1-1.748s4.169-9.35 4.169-9.35h-6.017l-.57 1.19c-4.716-3.088-14.671 1.007-14.88 9.885h-16.244c-2.643-.019-4.39-2.259-3.34-4.417 3.418-7.049 12.3-10.5 15.446-10.273 1.372.1 1.085 1.306.112 2.55a.38.38 0 0 0 .275.632h5.824c2.395-3.515 2.143-9.5-5.3-8.85-12.477 1.093-22.94 11.082-22.843 18.817.043 3.6 3.747 7.231 8.273 7.3h18.727l.744-1.724a6.077 6.077 0 0 0 9.319-.488 4.661 4.661 0 0 0 3.48 2.213h7.076l1.019-2.386a5.841 5.841 0 0 0 9.606.19 4.507 4.507 0 0 0 3.228 2.2h7.75l.918-2.139a5.218 5.218 0 0 0 3.937 2.135h14.016l.794-1.821a4.882 4.882 0 0 0 3.859 1.817h10.73l2.445-5.739h-10.015c-1.073 0-1.283-.779-.918-1.748m-19.612-3.423c1.283-2.12 5.444-3.174 6.444-.806a2.29 2.29 0 0 1 .109.833c-.008.066-.016.205-.19.205h-6.3s-.217.012-.062-.232m-35.944-.279a501.942 501.942 0 0 1-2.5 5.642c-1.38.872-4.522.422-4.294-2.348.143-1.748 2.74-6.053 6.7-4.018.256.14.182.508.085.725m21.053 0a586.912 586.912 0 0 1-2.5 5.642c-1.38.872-4.526.422-4.294-2.348.143-1.748 2.736-6.053 6.7-4.018.256.14.182.508.085.725"/>
    <path data-name="Path 883" d="M34.349 37.122v4.387a.387.387 0 0 1-.41.41h-5.822a.387.387 0 0 1-.41-.41V25.847a.387.387 0 0 1 .41-.41h5.822a.387.387 0 0 1 .41.41v3.772l5.822-.984v-4.1a4.5 4.5 0 0 0-4.51-4.51h-9.389a4.5 4.5 0 0 0-4.51 4.51v18.286a4.5 4.5 0 0 0 4.51 4.51h9.389a4.5 4.5 0 0 0 4.51-4.51v-4.715Zm10.537 10.209h17.011v-5.412H50.831v-5.863h10.166v-5.412H50.831v-5.207H61.86v-5.412H44.886Zm36.285 0h6.519l-4.838-10.209a4.539 4.539 0 0 0 3.239-4.346v-8.245a4.5 4.5 0 0 0-4.51-4.51h-15.17v27.31h5.945V37.286h4.059Zm-1.394-21.894a.387.387 0 0 1 .41.41v5.617a.387.387 0 0 1-.41.41h-7.421v-6.437Zm9.758 0h7.052v21.894h5.945V25.437h7.052v-5.412H89.535Zm29.684-5.412h-5.945v27.306h5.945Zm11.478 27.306V36.056h10.373v-5.412h-10.373v-5.207h11.275v-5.412h-17.22v27.306Zm20.91-27.306h-5.945v27.306h5.945Zm5.537 27.306h17.015v-5.412h-11.07v-5.863h10.168v-5.412h-10.168v-5.207h11.029v-5.412h-16.974Zm21.525-27.306v27.306h14.1a4.5 4.5 0 0 0 4.51-4.51v-18.29a4.5 4.5 0 0 0-4.51-4.51Zm12.259 5.412a.387.387 0 0 1 .41.41v15.662a.387.387 0 0 1-.41.41h-6.314V25.437Zm19.844-5.412v27.306h14.1a4.5 4.5 0 0 0 4.51-4.51v-18.29a4.5 4.5 0 0 0-4.51-4.51Zm12.259 5.412a.387.387 0 0 1 .41.41v15.662a.387.387 0 0 1-.41.41h-6.314V25.437Zm11.48 21.894h17.015v-5.412h-11.07v-5.863h10.168v-5.412h-10.168v-5.207h11.029v-5.412h-16.974Zm34.727-27.306h-5.986l-8.938 27.306h6.068l1.64-5.412h8.4l1.727 5.412h6.068Zm-2.993 7.544 2.46 9.1h-4.92Zm15.17 19.762h16.81v-5.412H287.36V20.025h-5.945Zm20.5 0h17.015v-5.412h-11.07v-5.863h10.168v-5.412H307.86v-5.207h11.029v-5.412h-16.974Zm36.282 0h6.519l-4.838-10.209a4.539 4.539 0 0 0 3.239-4.346v-8.245a4.5 4.5 0 0 0-4.51-4.51h-15.17v27.31h5.945V37.286h4.059Zm-1.394-21.894a.387.387 0 0 1 .41.41v5.617a.387.387 0 0 1-.41.41h-7.421v-6.437Z"/>
  </g>
</svg>