<svg xmlns="http://www.w3.org/2000/svg" width="368" height="141.468" viewBox="0 0 368 141.468"><defs><style>.a{fill:#fff;}.b{fill:#ffc20f;}</style></defs><g transform="translate(508.121 -172.832)"><g transform="translate(-457.189 294.241)"><path class="a" d="M-444.883,298.471h7.834l10.788,19.624h-6.7l-1.871-3.47h-12.2l-1.762,3.47h-6.722Zm.108,11.926h7.7l-3.9-7.373Z" transform="translate(455.509 -298.253)"/><path class="a" d="M-424.01,298.471h6.019V309.8c0,2.494.895,3.47,3.361,3.47h5.963c2.467,0,3.361-.976,3.361-3.47V298.471h6.017V311.1c0,4.879-2.52,7.209-8.049,7.209h-8.62c-5.53,0-8.051-2.33-8.051-7.209Z" transform="translate(454.503 -298.253)"/><path class="a" d="M-394.525,298.471h22.931v4.879h-8.456v14.745h-6.018V303.35h-8.456Z" transform="translate(453.562 -298.253)"/><path class="a" d="M-368.121,305.348c0-5.746,3.226-7.1,8.647-7.1h9.649c5.422,0,8.647,1.355,8.647,7.1V311.2c0,5.746-3.225,7.1-8.647,7.1h-9.649c-5.421,0-8.647-1.355-8.647-7.1Zm6.18,3.985c0,2.847.6,3.93,3.441,3.93h7.7c2.846,0,3.441-1.083,3.441-3.93v-2.113c0-2.441-.6-3.931-3.767-3.931h-7.048c-3.17,0-3.767,1.491-3.767,3.931Z" transform="translate(452.719 -298.246)"/><path class="a" d="M-321.39,311.663h6.018c.027,2.088.867,2.251,2.6,2.251h7.373c1.274,0,2.575-.137,2.575-1.653,0-1.709-.7-1.816-8.457-1.816-9.053,0-10.083-1.084-10.083-5.91,0-3.551.325-6.289,7.915-6.289h8.4c6.939,0,7.59,2.359,7.59,5.8v.623h-6.018c0-1.437-.163-2.033-2.927-2.033h-6.668c-1.355,0-2.277.461-2.277,1.519,0,1.707.732,1.761,7.183,1.735,9.352-.028,11.52.541,11.52,6.26,0,5.286-1.789,6.153-9.785,6.153h-7.292c-5.475,0-7.671-1.03-7.671-5.286Z" transform="translate(451.226 -298.246)"/><path class="a" d="M-293.866,298.471h22.931v4.879h-8.456v14.745h-6.019V303.35h-8.456Z" transform="translate(450.348 -298.253)"/><path class="a" d="M-266.5,298.471h21.469v4.553h-15.45v3.144h14.636v4.066h-14.636v3.144h15.8v4.716H-266.5Z" transform="translate(449.474 -298.253)"/><path class="a" d="M-239.647,298.471h21.468v4.553h-15.45v3.144h14.636v4.066h-14.636v3.144h15.8v4.716h-21.82Z" transform="translate(448.616 -298.253)"/><path class="a" d="M-212.8,298.471h18.162c4.634,0,5.881,2.3,5.881,5.827v1.247c0,2.629-.6,4.174-3.361,4.826v.053c1.789.325,3.28,1.111,3.28,4.337v3.334h-6.018v-2.357c0-2.061-.6-2.738-2.467-2.738h-9.459v5.095H-212.8Zm6.018,9.649h9.947c1.626,0,2.223-.65,2.223-2.059v-.651c0-1.735-.866-2.06-2.764-2.06h-9.406Z" transform="translate(447.759 -298.253)"/></g><g transform="translate(-508.121 172.832)"><path class="b" d="M-140.121,270.435l-25.9-14.951v10.3H-480.148a18.7,18.7,0,0,1-18.68-18.68v-46.3a18.7,18.7,0,0,1,18.68-18.68h307.114a18.7,18.7,0,0,1,18.681,18.68v46.306h9.293V200.805a28.006,28.006,0,0,0-27.974-27.973H-480.148a28.005,28.005,0,0,0-27.973,27.973v46.3a28,28,0,0,0,27.973,27.973h314.131v10.3Z" transform="translate(508.121 -172.832)"/><g transform="translate(26.725 27.407)"><path class="a" d="M-461.831,248.578c-9.8,0-16.3-4.637-18.683-14.045l8.944-1.788c1.324,4.77,4.77,6.823,9.739,6.823,3.444,0,7.884-1.789,7.884-5.83,0-8.348-25.11-2.584-25.11-19.279,0-8.944,8.017-13.317,15.966-13.317,8.414,0,13.649,3.18,17.292,10.6l-8.148,3.776c-2.12-3.842-4.505-5.565-9.143-5.565-2.584,0-6.493,1.193-6.493,4.505,0,7.022,25.11,2.384,25.11,19.279C-444.474,243.279-453.087,248.578-461.831,248.578Z" transform="translate(480.514 -201.143)"/><path class="a" d="M-402.223,228.854c0,11.859-5.1,19.61-17.689,19.61-12.655,0-17.756-7.751-17.756-19.61V201.691h9.474v26.633c0,5.963,1.192,10.931,8.215,10.931,7.354,0,8.281-4.77,8.281-10.931V201.691h9.474Z" transform="translate(479.146 -201.161)"/><path class="a" d="M-355.885,247.934h-11l-9.275-15.5c-1.391-2.384-1.987-3.113-4.836-3.113h-2.319v18.616h-9.474V201.691h16.96c9.011,0,16.033,4.307,16.033,14.045a12.993,12.993,0,0,1-8.679,12.521Zm-19.874-37.1h-7.685v10.136h7.685c3.644,0,6.492-.926,6.492-5.167C-369.268,211.628-372.248,210.833-375.76,210.833Z" transform="translate(477.713 -201.161)"/><path class="a" d="M-318.974,247.934h-31.734V201.691h31.734v9.341h-22.26v8.68h19.411v8.943h-19.411v9.937h22.26Z" transform="translate(476.369 -201.161)"/><path class="a" d="M-293.019,227.529h-12.454v20.4h-4.571V201.691h17.025c8.614,0,15.371,3.246,15.371,12.919S-284.4,227.529-293.019,227.529Zm0-21.267h-12.454v16.961h12.454c6.029,0,10.8-1.591,10.8-8.613S-286.989,206.262-293.019,206.262Z" transform="translate(475.071 -201.161)"/><path class="a" d="M-238.158,247.934h-4.969l-5.3-13.714H-268.7l-5.367,13.714h-4.9l17.888-46.243h5.035Zm-11.926-18.153-8.48-21.862-8.479,21.862Z" transform="translate(474.079 -201.161)"/><path class="a" d="M-207.208,206.2h-14.376v41.738h-4.637V206.2H-240.6v-4.5h33.391Z" transform="translate(472.853 -201.161)"/><path class="a" d="M-165.229,247.934h-4.638v-21.8h-24.18v21.8h-4.571V201.691h4.571v20.074h24.18V201.691h4.638Z" transform="translate(471.513 -201.161)"/></g></g><g transform="translate(-170.957 200.76)"><path class="a" d="M-156.312,202.707h-1.259v3.944h-1v-3.944h-1.259v-.979h3.524Zm5.157,3.922h-1.026v-2.311l-.934,2.311h-.629l-.957-2.311v2.311h-1v-4.948h.956l1.307,3.29,1.33-3.29h.956Z" transform="translate(159.836 -201.681)"/></g></g></svg>