<svg xmlns="http://www.w3.org/2000/svg" width="338.619" height="278.833">
  <g data-name="Group 2641">
    <path data-name="Path 921" d="m5.149 240.474 76.715 34.1 76.715-34.1V112.613H5.149Z" fill="#ffb711"/>
    <path data-name="Path 922" d="M161.955 240.475V87.044a4.26 4.26 0 0 0-4.263-4.261H4.262a4.259 4.259 0 0 0-4.261 4.261v153.431a4.258 4.258 0 0 0 2.531 3.9l76.715 34.1a4.28 4.28 0 0 0 3.461 0l76.715-34.1a4.258 4.258 0 0 0 2.532-3.9Zm-8.523-149.169v17.048H8.524V91.306Zm-72.455 178.6-72.453-32.2V116.878h144.908V237.71Z" fill="#1a1818"/>
    <path data-name="Path 929" d="M197.319 117.182h7.95l-5.9-12.45a5.535 5.535 0 0 0 3.95-5.3v-10.05a5.484 5.484 0 0 0-5.5-5.5h-18.5v33.3h7.25v-12.25h4.95Zm-1.7-26.7a.472.472 0 0 1 .5.5v6.85a.472.472 0 0 1-.5.5h-9.05v-7.85Zm22.15-6.6h-7.25v33.3h7.25Zm17.6 21.45h5.05v4.75a.472.472 0 0 1-.5.5h-7.4a.472.472 0 0 1-.5-.5v-19.1a.472.472 0 0 1 .5-.5h7.35a.472.472 0 0 1 .5.5v3.65l7.1-1.2v-4.05a5.484 5.484 0 0 0-5.5-5.5h-11.7a5.484 5.484 0 0 0-5.5 5.5v22.3a5.484 5.484 0 0 0 5.5 5.5h11.75a5.484 5.484 0 0 0 5.5-5.5v-12.65h-12.15Zm35.25 11.85h7.25v-33.3h-7.25v13.1h-9.6v-13.1h-7.25v33.3h7.25v-13.6h9.6Zm12-26.7h8.6v26.7h7.25v-26.7h8.6v-6.6h-24.45Zm-103.3 53.4v33.3h7.25v-12.2h10.6a5.484 5.484 0 0 0 5.5-5.5v-10.1a5.484 5.484 0 0 0-5.5-5.5Zm15.65 6.6a.472.472 0 0 1 .5.5v6.9a.472.472 0 0 1-.5.5h-8.4v-7.9Zm25.8-6.6h-7.3l-10.9 33.3h7.4l2-6.6h10.25l2.1 6.6h7.4Zm-3.65 9.2 3 11.1h-6Zm37 24.1h7.95l-5.9-12.45a5.535 5.535 0 0 0 3.95-5.3v-10.05a5.484 5.484 0 0 0-5.5-5.5h-18.5v33.3h7.25v-12.25h4.95Zm-1.7-26.7a.472.472 0 0 1 .5.5v6.85a.472.472 0 0 1-.5.5h-9.05v-7.85Zm12.4 0h8.6v26.7h7.25v-26.7h8.6v-6.6h-24.45Zm-85.5 53.4v33.3h7.25v-12.2h10.6a5.484 5.484 0 0 0 5.5-5.5v-10.1a5.484 5.484 0 0 0-5.5-5.5Zm15.65 6.6a.472.472 0 0 1 .5.5v6.9a.472.472 0 0 1-.5.5h-8.4v-7.9Zm12.45 26.7h20.5v-6.6h-13.25v-26.7h-7.25Zm25.5 0h20.75v-6.6h-13.5v-7.15h12.4v-6.6h-12.4v-6.35h13.45v-6.6h-20.7Zm26.75-33.3v33.3h17.2a5.484 5.484 0 0 0 5.5-5.5v-22.3a5.484 5.484 0 0 0-5.5-5.5Zm14.95 6.6a.472.472 0 0 1 .5.5v19.1a.472.472 0 0 1-.5.5h-7.7v-20.1Zm24.85 14.85h5.05v4.75a.472.472 0 0 1-.5.5h-7.4a.472.472 0 0 1-.5-.5v-19.1a.472.472 0 0 1 .5-.5h7.35a.472.472 0 0 1 .5.5v3.65l7.1-1.2v-4.05a5.484 5.484 0 0 0-5.5-5.5h-11.7a5.484 5.484 0 0 0-5.5 5.5v22.3a5.484 5.484 0 0 0 5.5 5.5h11.75a5.484 5.484 0 0 0 5.5-5.5v-12.65h-12.15Zm18.4 11.85h20.75v-6.6h-13.5v-7.15h12.4v-6.6h-12.4v-6.35h13.45v-6.6h-20.7Z" fill="#1a1818"/>
    <g data-name="Group 2639">
      <g data-name="Path 923" fill="#fff">
        <path d="M80.32 233.48c-24.343 0-44.147-19.806-44.147-44.15 0-24.343 19.804-44.147 44.147-44.147 4.924 0 9.756.807 14.361 2.4a43.796 43.796 0 0 1 12.6 6.847l6.145 5.793a43.7 43.7 0 0 1 8.17 13.426c1.907 4.984 2.873 10.26 2.873 15.681 0 24.344-19.805 44.15-44.149 44.15Z"/>
        <path d="M80.32 147.916c-22.836 0-41.414 18.578-41.414 41.414 0 22.837 18.578 41.416 41.414 41.416 22.837 0 41.416-18.58 41.416-41.416 0-10.111-3.704-19.833-10.098-27.035l-5.944-5.635c-7.31-5.72-16.085-8.744-25.374-8.744m0-5.467a46.43 46.43 0 0 1 28.743 9.905l6.325 5.963c7.612 8.537 11.815 19.408 11.815 31.013 0 25.85-21.033 46.883-46.883 46.883-25.848 0-46.881-21.033-46.881-46.883 0-25.848 21.033-46.881 46.881-46.881Z" fill="#1a1818"/>
      </g>
      <g data-name="Group 2638">
        <path data-name="Path 924" d="M77.79 190.086 62.7 173.294l-10.5 9.92 28.963 29.381c24.916-55.506 58.342-85.848 58.342-85.848-29.095 11.055-61.715 63.339-61.715 63.339Z" fill="#1a1818"/>
      </g>
    </g>
    <g data-name="Group 2640" fill="#030504">
      <path data-name="Path 925" d="m102.778 17.067 7.137-16.1h-10.08l-15.7 35.142h-6.536c-1.175 0-1.628-1.218-1.059-2.473l7.835-17.241H73.596s-8.7 19.358-8.827 19.713h-3.887c-1.265 0-1.973-1.033-1.356-2.486.748-1.761 7.785-17.227 7.785-17.227h-10.8l-8.245 18.537a5.376 5.376 0 0 0-.4 1.181H17.388c-4.678-.031-7.767-4-5.913-7.818 6.05-12.47 21.779-18.583 27.336-18.176 2.425.177 1.918 2.272.2 4.508a.668.668 0 0 0 .486 1.115h10.308c4.237-6.217 3.789-16.81-9.383-15.655C18.347 2.021-.17 19.697.002 33.387c.079 6.361 6.8 12.921 14.821 12.921h32.959l1.457-3.387a7.4 7.4 0 0 0 6.011 3.387h9.3s1.2-2.56 1.689-3.528a7.556 7.556 0 0 0 6.028 3.528l17.725.005.947-1.98c6.212 4.994 18.613 3.7 24.216-10.164 3.719-9.2-1.706-19.423-12.376-17.1m4.021 12.51c-.252 3.087-4.843 10.71-11.863 7.1-.453-.244-.319-.892-.148-1.275.42-.975 3.837-8.829 4.341-9.949a4.078 4.078 0 0 1 .494-.263c2.6-1.215 7.562-.259 7.175 4.384"/>
      <path data-name="Path 926" d="M321.622 41.12c0-.925-.539-1.376-1.683-1.376h-1.858v4.813h.746v-2.071h.794l1.309 2.071h.8l-1.376-2.126a1.236 1.236 0 0 0 1.265-1.311m-2.016.76h-.774v-1.529h.99c.508 0 1.059.1 1.059.736 0 .76-.606.793-1.27.793"/>
      <path data-name="Path 927" d="M319.687 38.038a4.118 4.118 0 1 0 4.13 4.1 4.11 4.11 0 0 0-4.13-4.1m0 7.629a3.514 3.514 0 1 1 3.379-3.533 3.4 3.4 0 0 1-3.379 3.533"/>
      <path data-name="Path 928" d="M293.518 33.059c.642-1.714 8-17.924 8-17.924h15.854a1.129 1.129 0 0 0 1.105-.674l3.521-7.568h-17.35l2.349-5.934h-10.49l-2.279 5.136c-.13.3-.453.724-1.385.724h-5.493l-3.61 8.317h7.14l-9.095 20.975-20.317.021c-.432-.039-4.216.251-4.34-3h18.79a2.331 2.331 0 0 0 2.064-1.275c2.408-5.1 1.769-12.769-5.5-15.211-5.809-1.738-14.37 0-19.516 5.467-3.147 3.183-6.512 8.892-6.4 14.021h-5.018c-2.08 0-2.613-1.531-1.9-3.072S253.807.975 253.807.975h-10.4l-8.019 17.4c-6.04-4.669-25.556.259-25.867 17.774h-5.573c-1.989 0-2.421-1.507-1.762-3.089s7.379-16.542 7.379-16.542h-10.656l-1.009 2.1c-8.347-5.467-25.961 1.778-26.334 17.491h-28.743c-4.676-.031-7.767-4-5.913-7.818 6.049-12.466 21.778-18.578 27.338-18.172 2.425.177 1.924 2.31.2 4.508a.669.669 0 0 0 .486 1.115h10.306c4.233-6.217 3.789-16.812-9.383-15.655-22.075 1.934-40.592 19.61-40.42 33.3.077 6.361 6.634 12.793 14.644 12.921h33.136l1.313-3.053a10.758 10.758 0 0 0 16.494-.868c1.1 2.334 4.527 3.918 6.157 3.918h12.522l1.8-4.223c5.364 7.087 13.766 5.076 17 .333 1.575 2.624 4.379 3.894 5.709 3.894h13.714l1.622-3.784a9.241 9.241 0 0 0 6.967 3.779h24.8l1.407-3.217c.692 1.27 3.569 3.214 6.831 3.214h18.986l4.324-10.157h-17.715c-1.9 0-2.27-1.375-1.627-3.089m-34.7-6.071c2.27-3.755 9.635-5.62 11.4-1.431a4.036 4.036 0 0 1 .185 1.477c-.009.117-.022.36-.333.36h-11.145s-.39.019-.112-.407m-63.6-.5c-1.04 2.394-3.561 8.088-4.415 9.989-2.444 1.538-8.007.743-7.6-4.161.254-3.089 4.844-10.711 11.864-7.1.453.244.317.892.149 1.275m37.251 0a1280.6 1280.6 0 0 1-4.415 9.989c-2.442 1.538-8.007.743-7.6-4.161.254-3.089 4.846-10.711 11.864-7.1.453.244.319.892.149 1.275"/>
    </g>
  </g>
</svg>
